<svg width="82" height="78" viewBox="0 0 82 78" fill="none" xmlns="http://www.w3.org/2000/svg">
<path d="M54.7951 35.8746C55.2409 35.8746 55.6689 35.697 55.9842 35.3817C56.3003 35.0665 56.477 34.6384 56.477 34.1917V30.8279C57.8153 30.8261 59.0984 30.2942 60.0441 29.3475C60.9899 28.4018 61.5227 27.1186 61.5236 25.7811V12.3231C61.5227 10.9849 60.9899 9.70264 60.0441 8.7567C59.0984 7.81006 57.8152 7.27814 56.477 7.27637H36.2904C34.953 7.27814 33.6699 7.81008 32.724 8.7567C31.7773 9.70246 31.2454 10.9848 31.2437 12.3231V25.7811C31.2454 27.1185 31.7774 28.4016 32.724 29.3475C33.6697 30.2942 34.9529 30.8261 36.2904 30.8279H47.5053L53.7854 35.538C54.0767 35.7565 54.431 35.8746 54.7951 35.8746L54.7951 35.8746ZM53.1132 29.1459V30.8278L49.0762 27.7997H49.0753C48.7849 27.5813 48.4306 27.4632 48.0665 27.4632H36.2903C35.3624 27.4623 34.6093 26.7092 34.6084 25.7812V12.3233C34.6093 11.3953 35.3624 10.6422 36.2903 10.6414H56.477C57.4058 10.6422 58.1589 11.3944 58.1598 12.3233V25.7812C58.1589 26.7101 57.4058 27.4623 56.477 27.4632H54.7951C53.8662 27.4632 53.1131 28.2162 53.1131 29.1451L53.1132 29.1459Z" fill="#06BF97"/>
<path d="M17.7874 56.0617C20.4638 56.0617 23.0311 54.9979 24.9246 53.1055C26.8169 51.2122 27.8808 48.6449 27.8808 45.9683C27.8808 43.291 26.817 40.7237 24.9246 38.8311C23.0313 36.9379 20.464 35.8749 17.7874 35.8749C15.1101 35.8749 12.5428 36.9378 10.6502 38.8311C8.75696 40.7235 7.69397 43.2908 7.69397 45.9683C7.69663 48.644 8.76137 51.2095 10.6539 53.1018C12.5454 54.9942 15.1108 56.0581 17.7874 56.0617ZM17.7874 39.2399V39.239C19.5715 39.239 21.2836 39.9485 22.5455 41.2104C23.8074 42.4723 24.5161 44.1835 24.5161 45.9685C24.5161 47.7526 23.8074 49.4647 22.5455 50.7266C21.2836 51.9885 19.5715 52.6972 17.7874 52.6972C16.0025 52.6972 14.2912 51.9885 13.0293 50.7266C11.7674 49.4648 11.0587 47.7527 11.0587 45.9685C11.0605 44.1845 11.7701 42.4742 13.0311 41.2122C14.2929 39.9512 16.0032 39.2417 17.7874 39.239L17.7874 39.2399Z" fill="#06BF97"/>
<path d="M48.0659 19.0517C48.0659 19.9814 47.3128 20.7345 46.3831 20.7345C45.4542 20.7345 44.7012 19.9814 44.7012 19.0517C44.7012 18.1228 45.4542 17.3698 46.3831 17.3698C47.3128 17.3698 48.0659 18.1228 48.0659 19.0517Z" fill="#06BF97"/>
<path d="M41.3369 19.0517C41.3369 19.9814 40.5838 20.7345 39.6549 20.7345C38.7261 20.7345 37.973 19.9814 37.973 19.0517C37.973 18.1228 38.7261 17.3698 39.6549 17.3698C40.5838 17.3698 41.3369 18.1228 41.3369 19.0517Z" fill="#06BF97"/>
<path d="M54.795 19.0517C54.795 19.9814 54.042 20.7345 53.1131 20.7345C52.1833 20.7345 51.4303 19.9814 51.4303 19.0517C51.4303 18.1228 52.1833 17.3698 53.1131 17.3698C54.042 17.3698 54.795 18.1228 54.795 19.0517Z" fill="#06BF97"/>
<path d="M19.4672 24.0986V27.4634C19.4672 28.101 19.8278 28.6835 20.397 28.9677C20.9671 29.2528 21.6491 29.1915 22.1588 28.8096L28.8875 23.763C29.6307 23.2054 29.7817 22.1504 29.224 21.4081C28.6673 20.6648 27.6123 20.5138 26.8691 21.0715L22.8321 24.0987V22.4168C22.8321 21.971 22.6545 21.543 22.3392 21.2277C22.024 20.9116 21.5959 20.7349 21.1493 20.7349H19.4673C18.5394 20.7331 17.7863 19.9809 17.7854 19.0521V5.59498C17.7863 4.66612 18.5394 3.91395 19.4673 3.91307H39.654C40.2569 3.91307 40.8129 4.23632 41.1112 4.76026C41.5792 5.56302 42.6093 5.83389 43.4121 5.3659C44.214 4.8979 44.4857 3.86781 44.0177 3.06504C43.5773 2.29779 42.9414 1.66018 42.1751 1.21795C41.4087 0.776601 40.5384 0.544834 39.6539 0.54838H19.4673C18.129 0.550156 16.8468 1.08209 15.9009 2.02783C14.9542 2.97447 14.4223 4.25678 14.4205 5.59494V19.0529V19.052C14.4223 20.3903 14.9542 21.6734 15.9009 22.6191C16.8466 23.5658 18.1289 24.0977 19.4673 24.0986L19.4672 24.0986Z" fill="#06BF97"/>
<path d="M54.7952 45.9682C54.7952 48.6446 55.8581 51.2119 57.7514 53.1054C59.6438 54.9977 62.211 56.0616 64.8886 56.0616C67.565 56.0616 70.1323 54.9978 72.0258 53.1054C73.9181 51.2121 74.982 48.6448 74.982 45.9682C74.982 43.2909 73.9182 40.7236 72.0258 38.831C70.1325 36.9377 67.5652 35.8748 64.8886 35.8748C62.2122 35.8774 59.6465 36.9422 57.7551 38.8337C55.8627 40.7261 54.7979 43.2916 54.7952 45.9682ZM64.8884 39.2395V39.2387C66.6733 39.2387 68.3845 39.9482 69.6465 41.2101C70.9084 42.472 71.617 44.1832 71.617 45.9682C71.617 47.7522 70.9084 49.4644 69.6465 50.7263C68.3846 51.9882 66.6734 52.6968 64.8884 52.6968C63.1034 52.6968 61.3922 51.9882 60.1303 50.7263C58.8683 49.4644 58.1597 47.7523 58.1597 45.9682C58.1615 44.1841 58.871 42.4738 60.132 41.2119C61.3939 39.95 63.1042 39.2405 64.8883 39.2387L64.8884 39.2395Z" fill="#06BF97"/>
<path d="M22.8342 59.4263H12.741C9.61874 59.4298 6.6261 60.6713 4.41846 62.879C2.21083 65.0867 0.969336 68.0802 0.965698 71.2024V76.249V76.2481C0.965698 77.1779 1.71875 77.9309 2.64761 77.9309C3.57648 77.9309 4.32953 77.1779 4.32953 76.2481V71.2025C4.33219 68.9717 5.21933 66.8342 6.79656 65.2572C8.37281 63.681 10.5112 62.7938 12.7409 62.7911H22.8341C25.0639 62.7937 27.2014 63.6809 28.7785 65.2572C30.3556 66.8343 31.2419 68.9718 31.2446 71.2025V76.2491V76.2482C31.2446 77.1779 31.9985 77.931 32.9274 77.931C33.8562 77.931 34.6093 77.1779 34.6093 76.2482V71.2025C34.6057 68.0803 33.3643 65.0867 31.1565 62.8791C28.9489 60.6714 25.9553 59.43 22.834 59.4263L22.8342 59.4263Z" fill="#06BF97"/>
<path d="M69.9357 59.4263H59.8425C56.7203 59.4298 53.7277 60.6722 51.52 62.8797C49.3124 65.0864 48.0709 68.08 48.0673 71.2022V76.2488V76.2479C48.0673 77.1777 48.8203 77.9307 49.7492 77.9307C50.678 77.9307 51.4311 77.1777 51.4311 76.2479V71.2022C51.4337 68.9715 52.3209 66.834 53.8981 65.257C55.4744 63.6807 57.6128 62.7936 59.8425 62.7908H69.9357C72.1655 62.7935 74.303 63.6807 75.88 65.257C77.4571 66.8341 78.3443 68.9716 78.3461 71.2022V76.2488V76.2479C78.3461 77.1777 79.1001 77.9307 80.0289 77.9307C80.9578 77.9307 81.7108 77.1777 81.7108 76.2479V71.2022C81.7073 68.08 80.4658 65.0865 78.2581 62.8798C76.0505 60.6721 73.0569 59.4297 69.9356 59.4263L69.9357 59.4263Z" fill="#06BF97"/>
<path d="M9.37588 69.52C8.44702 69.52 7.69397 70.2731 7.69397 71.2028V76.2494V76.2485C7.69397 77.1783 8.44702 77.9313 9.37588 77.9313C10.3048 77.9313 11.0587 77.1783 11.0587 76.2485V71.2028C11.0587 70.7562 10.8811 70.3281 10.5658 70.0129C10.2497 69.6976 9.82255 69.52 9.37586 69.52L9.37588 69.52Z" fill="#06BF97"/>
<path d="M26.1964 69.52C25.2676 69.52 24.5145 70.2731 24.5145 71.2028V76.2494V76.2485C24.5145 77.1783 25.2676 77.9313 26.1964 77.9313C27.1262 77.9313 27.8792 77.1783 27.8792 76.2485V71.2028C27.8792 70.7562 27.7016 70.3281 27.3864 70.0129C27.0711 69.6976 26.6431 69.52 26.1964 69.52L26.1964 69.52Z" fill="#06BF97"/>
<path d="M56.4773 69.52C55.5485 69.52 54.7954 70.2731 54.7954 71.2028V76.2494V76.2485C54.7954 77.1783 55.5485 77.9313 56.4773 77.9313C57.4062 77.9313 58.1601 77.1783 58.1601 76.2485V71.2028C58.1601 70.7562 57.9825 70.3281 57.6673 70.0129C57.352 69.6976 56.924 69.52 56.4773 69.52L56.4773 69.52Z" fill="#06BF97"/>
<path d="M73.3002 69.52C72.3705 69.52 71.6174 70.2731 71.6174 71.2028V76.2494V76.2485C71.6174 77.1783 72.3705 77.9313 73.3002 77.9313C74.2291 77.9313 74.9821 77.1783 74.9821 76.2485V71.2028C74.9821 70.7562 74.8045 70.3281 74.4893 70.0129C74.174 69.6976 73.746 69.52 73.3002 69.52L73.3002 69.52Z" fill="#06BF97"/>
</svg>
