<svg width="40" height="40" viewBox="0 0 40 40" fill="none" xmlns="http://www.w3.org/2000/svg">
<rect y="0.493408" width="39.0656" height="39.0656" rx="19.5328" fill="white"/>
<path d="M30.3844 13.4074C29.6262 13.7465 28.8011 13.9905 27.9512 14.0855C28.8336 13.5421 29.4943 12.6836 29.8095 11.6712C28.9815 12.1817 28.0744 12.5398 27.1285 12.7294C26.7332 12.2913 26.255 11.9422 25.7239 11.7041C25.1927 11.4659 24.6199 11.3437 24.0412 11.345C21.6996 11.345 19.8165 13.3124 19.8165 15.7267C19.8165 16.0657 19.8561 16.4048 19.9205 16.731C16.4144 16.5409 13.2874 14.8046 11.2085 12.1463C10.8297 12.817 10.6312 13.5806 10.6337 14.3577C10.6337 15.8782 11.3795 17.2189 12.5168 18.0075C11.8466 17.9801 11.192 17.7891 10.6064 17.4501V17.504C10.6064 19.6333 12.0584 21.3978 13.9936 21.8036C13.6302 21.9014 13.2565 21.9515 12.881 21.9525C12.606 21.9525 12.3458 21.9243 12.0832 21.8858C12.6184 23.622 14.1769 24.8831 16.0328 24.9242C14.5808 26.1031 12.7621 26.7966 10.7873 26.7966C10.433 26.7966 10.1059 26.7837 9.76642 26.7426C11.6397 27.9883 13.8623 28.7075 16.2558 28.7075C24.0263 28.7075 28.2782 22.0347 28.2782 16.243C28.2782 16.0529 28.2782 15.8628 28.2659 15.6728C29.0885 15.0486 29.8095 14.2755 30.3844 13.4074Z" fill="#06BF97"/>
</svg>
