<svg width="40" height="40" viewBox="0 0 40 40" fill="none" xmlns="http://www.w3.org/2000/svg">
<rect x="0.131271" y="0.493408" width="39.0656" height="39.0656" rx="19.5328" fill="white"/>
<path d="M19.6618 17.1312C18.0677 17.1312 16.7668 18.4321 16.7668 20.0262C16.7668 21.6203 18.0677 22.9212 19.6618 22.9212C21.2558 22.9212 22.5567 21.6203 22.5567 20.0262C22.5567 18.4321 21.2558 17.1312 19.6618 17.1312ZM28.3444 20.0262C28.3444 18.8274 28.3553 17.6394 28.2879 16.4428C28.2206 15.0528 27.9035 13.8193 26.8872 12.8029C25.8686 11.7843 24.6372 11.4694 23.2473 11.4021C22.0485 11.3348 20.8606 11.3456 19.6639 11.3456C18.4651 11.3456 17.2772 11.3348 16.0806 11.4021C14.6907 11.4694 13.4571 11.7865 12.4407 12.8029C11.4222 13.8214 11.1073 15.0528 11.04 16.4428C10.9726 17.6416 10.9835 18.8296 10.9835 20.0262C10.9835 21.2229 10.9726 22.413 11.04 23.6097C11.1073 24.9996 11.4244 26.2332 12.4407 27.2496C13.4593 28.2681 14.6907 28.583 16.0806 28.6504C17.2794 28.7177 18.4673 28.7068 19.6639 28.7068C20.8627 28.7068 22.0507 28.7177 23.2473 28.6504C24.6372 28.583 25.8708 28.266 26.8872 27.2496C27.9057 26.231 28.2206 24.9996 28.2879 23.6097C28.3574 22.413 28.3444 21.225 28.3444 20.0262ZM19.6618 24.4805C17.1969 24.4805 15.2075 22.4912 15.2075 20.0262C15.2075 17.5613 17.1969 15.5719 19.6618 15.5719C22.1267 15.5719 24.116 17.5613 24.116 20.0262C24.116 22.4912 22.1267 24.4805 19.6618 24.4805ZM24.2984 16.4298C23.7229 16.4298 23.2582 15.965 23.2582 15.3895C23.2582 14.814 23.7229 14.3492 24.2984 14.3492C24.874 14.3492 25.3387 14.814 25.3387 15.3895C25.3389 15.5261 25.3121 15.6615 25.2599 15.7878C25.2077 15.9141 25.131 16.0288 25.0344 16.1254C24.9378 16.2221 24.823 16.2987 24.6967 16.3509C24.5704 16.4031 24.4351 16.4299 24.2984 16.4298Z" fill="#06BF97"/>
</svg>
