<svg width="454" height="454" viewBox="0 0 454 454" fill="none" xmlns="http://www.w3.org/2000/svg">
<path d="M12.349 132.666H167.476C173.772 132.666 179.019 127.879 179.609 121.615L189.381 17.8913C190.054 10.8245 184.561 4.69219 177.478 4.56102L12.5785 1.4293C5.75761 1.29813 0.150024 6.79094 0.150024 13.6119V120.484C0.166421 127.223 5.62644 132.666 12.349 132.666Z" fill="url(#paint0_linear_2_521)"/>
<path d="M179.478 27.1387L172.542 116.827C172.247 120.73 169.017 123.747 165.098 123.779L16.202 125.337C12.0046 125.386 8.5777 121.992 8.5777 117.795V21.2523C8.5777 16.9892 12.1193 13.5788 16.366 13.71L172.198 19.0224C176.51 19.17 179.806 22.8592 179.478 27.1387Z" fill="url(#paint1_linear_2_521)"/>
<path d="M99.9879 26.3191L16.0217 23.8104C15.1691 23.7776 14.4477 24.4827 14.4477 25.3353V26.6798C14.4477 27.516 15.1199 28.1883 15.9562 28.2047L99.9224 29.3688C100.775 29.3852 101.464 28.6966 101.464 27.8439C101.48 27.0241 100.824 26.3519 99.9879 26.3191Z" fill="#91B3FA"/>
<path d="M101.48 34.8941V35.468C101.48 36.3042 100.791 36.9929 99.9551 36.9929H15.9889C15.1527 36.9929 14.4641 36.3042 14.4641 35.468V34.8941C14.4641 34.0579 15.1527 33.3693 15.9889 33.3693H99.9551C100.791 33.3693 101.48 34.0415 101.48 34.8941Z" fill="#91B3FA"/>
<path d="M75.9835 42.4202V42.6661C75.9835 43.5024 75.2949 44.191 74.4586 44.191H15.9889C15.1527 44.191 14.4641 43.5024 14.4641 42.6661V41.4856C14.4641 40.633 15.1691 39.9443 16.0217 39.9607L74.5078 40.8953C75.3277 40.9117 75.9835 41.584 75.9835 42.4202Z" fill="#91B3FA"/>
<path d="M36.714 88.7898C36.5008 88.7898 36.2713 88.7078 36.0909 88.5602L22.2031 76.4104C21.8096 76.0661 21.7768 75.4759 22.1212 75.0823C22.4655 74.6888 23.0558 74.656 23.4493 75.0004L36.7468 86.6254L61.7186 66.3266C62.0465 66.0643 62.522 66.0479 62.8663 66.2938L87.4118 84.2643L121.844 42.9617C122.008 42.7649 122.238 42.6502 122.5 42.6338C122.746 42.6174 123.008 42.6994 123.189 42.8633C123.189 42.8633 152.801 68.8353 156.474 72.049C156.867 72.3933 156.9 72.9836 156.556 73.3771C156.211 73.7706 155.621 73.8034 155.227 73.4591C151.899 70.5405 127.222 48.9136 122.664 44.9129L88.2808 86.1499C87.9693 86.5271 87.4118 86.5926 87.0019 86.3139L62.3416 68.2286L37.3043 88.5602C37.1403 88.7242 36.9271 88.7898 36.714 88.7898Z" fill="url(#paint2_linear_2_521)"/>
<path d="M122.058 110.663C121.713 110.663 121.434 110.384 121.434 110.04V108.154C121.434 107.81 121.713 107.531 122.058 107.531C122.402 107.531 122.681 107.81 122.681 108.154V110.04C122.681 110.384 122.402 110.663 122.058 110.663ZM122.058 104.399C121.713 104.399 121.434 104.121 121.434 103.776V101.907C121.434 101.563 121.713 101.284 122.058 101.284C122.402 101.284 122.681 101.563 122.681 101.907V103.793C122.681 104.121 122.402 104.399 122.058 104.399ZM122.058 98.1522C121.713 98.1522 121.434 97.8735 121.434 97.5292V95.6436C121.434 95.2993 121.713 95.0205 122.058 95.0205C122.402 95.0205 122.681 95.2993 122.681 95.6436V97.5292C122.681 97.8735 122.402 98.1522 122.058 98.1522ZM122.058 91.8888C121.713 91.8888 121.434 91.6101 121.434 91.2657V89.3801C121.434 89.0358 121.713 88.7571 122.058 88.7571C122.402 88.7571 122.681 89.0358 122.681 89.3801V91.2657C122.681 91.6101 122.402 91.8888 122.058 91.8888ZM122.058 85.6254C121.713 85.6254 121.434 85.3466 121.434 85.0023V83.1167C121.434 82.7724 121.713 82.4936 122.058 82.4936C122.402 82.4936 122.681 82.7724 122.681 83.1167V85.0023C122.681 85.3466 122.402 85.6254 122.058 85.6254ZM122.058 79.3783C121.713 79.3783 121.434 79.0996 121.434 78.7553V76.8697C121.434 76.5253 121.713 76.2466 122.058 76.2466C122.402 76.2466 122.681 76.5253 122.681 76.8697V78.7553C122.681 79.0996 122.402 79.3783 122.058 79.3783ZM122.058 73.1149C121.713 73.1149 121.434 72.8361 121.434 72.4918V70.6062C121.434 70.2619 121.713 69.9832 122.058 69.9832C122.402 69.9832 122.681 70.2619 122.681 70.6062V72.4918C122.681 72.8361 122.402 73.1149 122.058 73.1149ZM122.058 66.8514C121.713 66.8514 121.434 66.5727 121.434 66.2284V64.3428C121.434 63.9985 121.713 63.7197 122.058 63.7197C122.402 63.7197 122.681 63.9985 122.681 64.3428V66.2284C122.681 66.5727 122.402 66.8514 122.058 66.8514ZM122.058 60.588C121.713 60.588 121.434 60.3093 121.434 59.9649V58.0793C121.434 57.735 121.713 57.4563 122.058 57.4563C122.402 57.4563 122.681 57.735 122.681 58.0793V59.9649C122.681 60.3093 122.402 60.588 122.058 60.588ZM122.058 54.341C121.713 54.341 121.434 54.0622 121.434 53.7179V51.8323C121.434 51.488 121.713 51.2092 122.058 51.2092C122.402 51.2092 122.681 51.488 122.681 51.8323V53.7179C122.681 54.0622 122.402 54.341 122.058 54.341Z" fill="url(#paint3_linear_2_521)"/>
<path d="M87.5758 109.121C87.2315 109.121 86.9528 108.842 86.9528 108.498V106.612C86.9528 106.268 87.2315 105.989 87.5758 105.989C87.9201 105.989 88.1989 106.268 88.1989 106.612V108.498C88.1989 108.842 87.9201 109.121 87.5758 109.121ZM87.5758 102.874C87.2315 102.874 86.9528 102.595 86.9528 102.251V100.365C86.9528 100.021 87.2315 99.7423 87.5758 99.7423C87.9201 99.7423 88.1989 100.021 88.1989 100.365V102.251C88.1989 102.595 87.9201 102.874 87.5758 102.874ZM87.5758 96.6106C87.2315 96.6106 86.9528 96.3319 86.9528 95.9876V94.102C86.9528 93.7576 87.2315 93.4789 87.5758 93.4789C87.9201 93.4789 88.1989 93.7576 88.1989 94.102V95.9876C88.1989 96.3319 87.9201 96.6106 87.5758 96.6106ZM87.5758 90.3472C87.2315 90.3472 86.9528 90.0684 86.9528 89.7241V87.8385C86.9528 87.4942 87.2315 87.2155 87.5758 87.2155C87.9201 87.2155 88.1989 87.4942 88.1989 87.8385V89.7241C88.1989 90.0684 87.9201 90.3472 87.5758 90.3472Z" fill="url(#paint4_linear_2_521)"/>
<path d="M61.4234 111.154H61.407C61.0627 111.138 60.784 110.859 60.8004 110.515L60.866 108.646C60.8823 108.301 61.1447 108.039 61.5054 108.039C61.8497 108.055 62.1285 108.334 62.1121 108.678L62.0465 110.548C62.0301 110.876 61.7678 111.154 61.4234 111.154ZM61.6202 104.891H61.6038C61.2595 104.874 60.9807 104.596 60.9971 104.251L61.0627 102.382C61.0791 102.038 61.3415 101.775 61.7022 101.775C62.0465 101.792 62.3252 102.071 62.3088 102.415L62.2433 104.284C62.2269 104.628 61.9481 104.891 61.6202 104.891ZM61.817 98.6274H61.8005C61.4562 98.611 61.1775 98.3322 61.1939 97.9879L61.2595 96.1187C61.2759 95.7744 61.5382 95.4957 61.8989 95.5121C62.2433 95.5285 62.522 95.8072 62.5056 96.1515L62.44 98.0207C62.4236 98.365 62.1449 98.6274 61.817 98.6274ZM61.9973 92.3803H61.9809C61.6366 92.3639 61.3578 92.0852 61.3742 91.7409L61.4398 89.8717C61.4562 89.5274 61.735 89.265 62.0793 89.265C62.4236 89.2814 62.7024 89.5601 62.686 89.9045L62.6204 91.7737C62.6204 92.118 62.3416 92.3803 61.9973 92.3803ZM62.1941 86.1169H62.1777C61.8333 86.1005 61.5546 85.8218 61.571 85.4774L61.6366 83.6082C61.653 83.2639 61.9153 82.9852 62.2761 83.0016C62.6204 83.018 62.8991 83.2967 62.8827 83.641L62.8171 85.5102C62.8171 85.8546 62.5384 86.1169 62.1941 86.1169ZM62.3908 79.8698H62.3744C62.0301 79.8535 61.7514 79.5747 61.7678 79.2304L61.8333 77.3612C61.8497 77.0169 62.1285 76.7381 62.4728 76.7545C62.8171 76.7709 63.0959 77.0497 63.0795 77.394L63.0139 79.2632C63.0139 79.6075 62.7352 79.8698 62.3908 79.8698ZM62.5876 73.6064H62.5712C62.2269 73.59 61.9481 73.3113 61.9645 72.9669L62.0301 71.0977C62.0465 70.7534 62.3088 70.4911 62.6696 70.4911C63.0139 70.5075 63.2926 70.7862 63.2762 71.1305L63.2106 72.9997C63.2106 73.3441 62.9319 73.6064 62.5876 73.6064Z" fill="url(#paint5_linear_2_521)"/>
<path d="M36.3861 110.761C36.0417 110.761 35.763 110.482 35.763 110.138V108.252C35.763 107.908 36.0417 107.629 36.3861 107.629C36.7304 107.629 37.0091 107.908 37.0091 108.252V110.138C37.0091 110.482 36.7304 110.761 36.3861 110.761ZM36.3861 104.498C36.0417 104.498 35.763 104.219 35.763 103.875V101.989C35.763 101.645 36.0417 101.366 36.3861 101.366C36.7304 101.366 37.0091 101.645 37.0091 101.989V103.875C37.0091 104.219 36.7304 104.498 36.3861 104.498ZM36.3861 98.2506C36.0417 98.2506 35.763 97.9719 35.763 97.6276V95.742C35.763 95.3976 36.0417 95.1189 36.3861 95.1189C36.7304 95.1189 37.0091 95.3976 37.0091 95.742V97.6276C37.0091 97.9555 36.7304 98.2506 36.3861 98.2506ZM36.3861 91.9872C36.0417 91.9872 35.763 91.7084 35.763 91.3641V89.4785C35.763 89.1342 36.0417 88.8555 36.3861 88.8555C36.7304 88.8555 37.0091 89.1342 37.0091 89.4785V91.3641C37.0091 91.7084 36.7304 91.9872 36.3861 91.9872Z" fill="url(#paint6_linear_2_521)"/>
<path d="M158.802 118.27C158.769 118.27 158.753 118.27 158.72 118.27C158.195 118.221 157.818 117.778 157.867 117.254L164.901 34.1236C164.95 33.6153 165.393 33.2218 165.918 33.271C166.443 33.3202 166.82 33.7629 166.771 34.2876L159.736 117.418C159.704 117.893 159.294 118.27 158.802 118.27Z" fill="url(#paint7_linear_2_521)"/>
<path d="M162.36 37.649L165.803 34.7469L168.705 38.1901L168.935 35.5011L166.033 32.0579L162.589 34.96L162.36 37.649Z" fill="#142D52"/>
<path d="M164.131 114.351H19.4322C18.9075 114.351 18.4976 113.925 18.4976 113.417C18.4976 112.909 18.9239 112.482 19.4322 112.482H164.131C164.656 112.482 165.065 112.909 165.065 113.417C165.065 113.925 164.656 114.351 164.131 114.351Z" fill="#142D52"/>
<path d="M23.1706 110.236L19.9897 113.417L23.1706 116.598H20.4652L17.2842 113.417L20.4652 110.236H23.1706Z" fill="url(#paint8_linear_2_521)"/>
<path d="M225.158 421.276C225.158 421.276 226.486 428.753 227.126 436.148C227.372 439.034 225.142 441.542 222.256 441.674C212.402 442.083 191.333 442.887 183.774 442.543C182.642 442.493 181.888 441.329 182.314 440.263C182.675 439.378 183.347 438.657 184.216 438.263L219.026 422.26L225.158 421.276Z" fill="url(#paint9_linear_2_521)"/>
<path d="M226.241 416.882L225.175 425.819C225.175 425.819 219.075 428.655 214.911 425.458L217.436 415.489L226.241 416.882Z" fill="url(#paint10_linear_2_521)"/>
<path d="M225.454 248.818C225.913 251.146 227.913 365.315 215.714 416.472C215.517 417.308 215.944 418.161 216.731 418.489C218.6 419.259 222.273 420.358 226.667 420.505C228.028 420.555 229.258 419.669 229.635 418.357C233.127 406.486 249.835 347.016 252.016 290.203C254.459 226.716 252.016 288.038 252.016 288.038L250.589 248.802L225.454 248.818Z" fill="url(#paint11_linear_2_521)"/>
<path d="M265.215 425.179C265.215 425.179 267.314 428.95 269.347 438.985C269.708 440.789 268.445 442.527 266.609 442.707C263.362 443.035 258.345 443.445 254.328 443.412C252.475 443.396 251.032 441.789 251.262 439.952C251.704 436.296 253.098 430.295 257.361 425.605L265.215 425.179Z" fill="url(#paint12_linear_2_521)"/>
<path d="M267.051 413.686L264.575 427.213C264.575 427.213 262.132 429.033 257.279 427.721L258.46 413.177L267.051 413.686Z" fill="url(#paint13_linear_2_521)"/>
<path d="M273.741 252.328C283.726 312.568 271.577 401.208 267.478 418.555C267.232 419.621 266.363 420.424 265.297 420.605C263.46 420.9 260.46 421.162 257.492 420.293C256.476 419.998 255.754 419.08 255.705 418.014C255.148 403.995 256.148 317.881 246.851 283.858C246.375 282.137 245.326 280.628 243.867 279.595L225.814 266.757L224.437 246.015L273.741 252.328Z" fill="url(#paint14_linear_2_521)"/>
<path d="M210.156 138.192C240.063 137.7 273.069 146.046 273.069 146.046C281.989 198.072 274.627 258.067 274.627 258.067C251.475 264.133 225.355 254.361 225.355 254.361C221.502 232.619 203.548 171.428 203.548 171.428C188.939 169.608 176.887 165.394 166.984 159.819C174.543 151.047 178.117 139.898 179.658 133.306C190.234 136.585 200.925 138.34 210.156 138.192Z" fill="#06BF97"/>
<path d="M121.812 94.1346C124.747 90.593 128.469 92.2654 128.469 92.2654C132.863 110.859 155.949 125.927 179.658 133.306C178.117 139.897 174.543 151.047 166.984 159.819C127.632 137.7 121.812 94.1346 121.812 94.1346Z" fill="url(#paint15_linear_2_521)"/>
<path d="M122.517 95.0366C122.205 96.0204 125.763 97.4961 127.862 93.5117C127.927 91.5933 129.108 83.3951 127.96 81.8211C121.861 73.5081 110.039 63.0963 110.039 63.0963C108.039 65.0639 109.695 66.9987 109.695 66.9987L115.433 72.967C114.236 75.1313 112.777 76.9677 112.089 79.5911C111.564 81.5751 111.892 83.6903 112.892 85.5103C113.892 87.3303 115.269 89.675 116.565 91.5278C119.008 95.0202 122.517 95.0366 122.517 95.0366Z" fill="url(#paint16_linear_2_521)"/>
<path d="M117.926 76.853L123.156 81.2801L124.796 85.6907L120.139 90.8556C120.139 90.8556 118.565 82.0999 117.401 80.2143C116.237 78.3287 116.844 77.4105 117.926 76.853Z" fill="url(#paint17_linear_2_521)"/>
<path d="M261.591 175.002L273.069 146.046C273.069 146.046 301.008 165.033 305.599 189.103C300.32 189.497 290.711 190.858 281.316 195.613C279.25 184.25 261.591 175.002 261.591 175.002Z" fill="#06BF97"/>
<path d="M237.177 202.269C237.177 202.269 268.543 219.994 279.136 204.86C281.333 201.712 281.857 198.596 281.316 195.612C290.711 190.857 300.32 189.496 305.599 189.103C306.977 196.367 306.255 204.073 301.992 211.878C283.448 245.785 233.029 210.008 233.029 210.008L237.177 202.269Z" fill="url(#paint18_linear_2_521)"/>
<path d="M240.948 224.684L223.83 164.902C223.634 164.23 223.06 163.722 222.355 163.64C219.256 163.279 210.271 162.262 199.892 161.377C187.398 160.328 172.87 159.459 164.197 160.196C162.967 160.295 162.213 161.606 162.77 162.721C167.705 172.707 187.988 213.288 198.154 226.586C198.498 227.028 199.006 227.291 199.564 227.274L239.276 226.897C240.44 226.913 241.26 225.799 240.948 224.684Z" fill="url(#paint19_linear_2_521)"/>
<path d="M198.104 156.212L185.692 154.146C185.036 154.031 184.495 154.671 184.692 155.31L185.922 159.032C186.037 159.36 186.315 159.59 186.643 159.639L198.58 161.229C199.203 161.311 199.711 160.754 199.564 160.147L198.809 156.901C198.744 156.54 198.465 156.278 198.104 156.212Z" fill="#7D97F4"/>
<path d="M207.401 166.722L206.385 161.393C206.286 160.852 205.843 160.459 205.302 160.393L180.232 157.852C179.396 157.77 178.707 158.54 178.904 159.36L180.495 166.001C180.626 166.526 181.085 166.919 181.626 166.935L206.122 168.165C206.926 168.214 207.549 167.509 207.401 166.722Z" fill="#91B3FA"/>
<path d="M236.816 210.238C236.816 210.238 239.194 200.433 238.243 196.957C237.276 193.481 235.423 189.005 229.208 190.005C222.994 191.005 215.665 193.612 215.665 193.612C215.665 193.612 216.042 198.138 220.764 196.678L217.829 198.941C217.829 198.941 218.256 202.565 222.24 200.63L219.518 203.63C219.518 203.63 221.223 206.615 224.158 204.696C227.077 202.794 228.487 211.419 236.816 210.238Z" fill="url(#paint20_linear_2_521)"/>
<path d="M240.456 113.909L249.966 141.439C250.13 141.898 249.933 142.406 249.507 142.636C246.916 144.062 237.571 148.21 226.306 141.078C225.126 140.34 224.339 139.127 224.158 137.749L221.076 113.925H240.456V113.909Z" fill="url(#paint21_linear_2_521)"/>
<path d="M219.748 88.4293C219.748 88.4293 209.303 108.105 210.631 116.041C211.976 123.993 224.929 123.419 236.226 116.959L244.129 95.7257L219.748 88.4293Z" fill="url(#paint22_linear_2_521)"/>
<path d="M235.734 106.531C235.275 106.334 235.111 105.76 235.373 105.35C236.21 104.071 237.784 101.464 238.276 99.1852C238.276 99.1852 240.161 97.9883 233.488 96.3814C226.831 94.791 216.895 92.3151 214.812 86.6419C212.779 81.1163 218.124 67.2121 226.65 78.2961C226.978 78.7224 227.618 78.7224 227.929 78.3125C229.323 76.4925 233.012 72.7213 238.112 75.0004C242.883 77.1484 243.424 80.6408 243.358 82.4116C243.342 82.9363 243.801 83.3298 244.309 83.2314C246.72 82.7723 252.524 82.3788 255.23 88.3143C257.459 93.2169 256.017 95.9879 254.688 97.3488C254.262 97.7915 254.442 98.5129 255.033 98.6933C256.623 99.1852 258.673 100.53 258.46 104.252C258.181 109.4 252.426 108.941 250.786 108.712C250.524 108.679 250.245 108.761 250.065 108.974C248.655 110.532 242.342 117.123 235.488 117.91C234.898 117.976 234.439 117.402 234.636 116.828L237.603 108.22C237.734 107.826 237.554 107.383 237.161 107.203L235.734 106.531Z" fill="url(#paint23_linear_2_521)"/>
<path d="M234.537 107.761C234.537 107.761 241.981 102.661 242.522 106.957C243.063 111.253 235.816 113.188 232.242 111.581L234.537 107.761Z" fill="url(#paint24_linear_2_521)"/>
<path d="M84.9032 280.709C74.2619 281.349 73.9011 268.986 74.557 262.066C74.7374 260.148 72.7534 258.771 71.0154 259.607L55.2092 267.182C55.2092 267.182 54.4714 285.415 72.6878 291.891C77.2952 293.531 81.5091 293.597 85.2311 292.793C83.657 288.17 83.985 284.005 84.9032 280.709Z" fill="#06BF97"/>
<path d="M112.826 273.775C107.448 270.036 101.349 273.775 101.349 273.775C94.1508 278.48 88.8383 280.481 84.9032 280.71C83.9686 284.006 83.6406 288.154 85.2311 292.795C93.2981 291.057 99.0533 285.236 101.562 282.235C102.464 281.153 104.054 280.973 105.169 281.842C106.284 282.727 107.383 283.94 107.186 285.219C106.792 287.728 109.711 288.531 109.941 287.613C110.154 286.695 108.94 281.301 108.94 281.301C108.94 281.301 114.777 287.171 117.057 289.417C119.336 291.68 122.205 289.417 122.205 289.417C122.205 289.417 118.204 277.513 112.826 273.775Z" fill="url(#paint25_linear_2_521)"/>
<path d="M93.2654 295.417L97.6105 294.827L110.728 293.499C112.302 293.335 113.892 293.81 115.105 294.827L125.189 303.123L94.9215 299.221L93.2654 295.417Z" fill="url(#paint26_linear_2_521)"/>
<path d="M109.58 442.789C98.8565 442.789 94.1015 441.87 91.9864 441.034C92.3963 442.789 93.9704 444.182 95.9543 444.182H133.896C135.175 444.182 135.978 442.953 135.683 441.854C131.354 442.198 122.156 442.789 109.58 442.789Z" fill="url(#paint27_linear_2_521)"/>
<path d="M135.683 441.854C135.617 441.625 135.535 441.412 135.371 441.215C132.486 437.526 126.681 431.721 118.778 431.836C107.202 432 103.169 433.246 94.1836 431.902L92.0685 438.936C91.8553 439.657 91.8553 440.362 92.0029 441.035C94.118 441.871 98.873 442.789 109.596 442.789C122.156 442.789 131.354 442.199 135.683 441.854Z" fill="url(#paint28_linear_2_521)"/>
<path d="M96.7742 424.327L94.1672 433.181C94.1672 433.181 99.9388 435.804 105.005 433.705L106.005 426.032L96.7742 424.327Z" fill="url(#paint29_linear_2_521)"/>
<path d="M175.428 437.214C167.066 443.937 162.786 446.199 160.622 446.871C162.049 447.986 164.131 448.068 165.672 446.839L195.251 423.064C196.252 422.26 196.12 420.801 195.186 420.145C192.021 423.113 185.233 429.327 175.428 437.214Z" fill="url(#paint30_linear_2_521)"/>
<path d="M195.186 420.128C195.005 419.997 194.792 419.882 194.546 419.817C189.988 418.767 181.855 417.898 175.772 422.932C166.853 430.31 164.492 433.803 156.638 438.394L159.359 445.182C159.638 445.871 160.081 446.428 160.622 446.854C162.803 446.182 167.066 443.92 175.428 437.197C185.233 429.327 192.021 423.112 195.186 420.128Z" fill="url(#paint31_linear_2_521)"/>
<path d="M41.0755 323.422C41.0755 323.422 105.3 328.669 118.467 334.867C131.633 341.065 107.711 427.982 107.711 427.982C107.711 427.982 104.12 429.704 96.1512 427.228C96.1512 427.228 104.333 363.085 98.2499 349.181L28.7126 337.802L41.0755 323.422Z" fill="url(#paint32_linear_2_521)"/>
<path d="M150.243 426.195C150.833 426.736 156.621 438.41 156.621 438.41C156.621 438.41 163.065 437.017 164.377 432.934L158.589 422.407L150.243 426.195Z" fill="url(#paint33_linear_2_521)"/>
<path d="M2.3963 322.881C2.3963 322.881 0.297553 327.915 0.395932 334.605C0.510707 343.852 7.95469 351.362 17.2023 351.837L93.1178 355.297C94.7247 355.362 96.0856 356.477 96.4791 358.035C98.2663 364.938 106.989 386.122 149.604 428.409C150.735 429.54 152.506 429.72 153.85 428.868L159.917 425.031C160.556 424.621 160.753 423.801 160.376 423.145L116.171 347.656C113.843 343.819 110.121 341.065 105.776 339.95L39.567 314.486L2.3963 322.881Z" fill="url(#paint34_linear_2_521)"/>
<path d="M56.439 196.449C56.439 196.449 50.8478 211.993 43.8629 220.256L62.3745 226.782C62.3745 226.782 63.6042 211.124 71.5565 205.237L56.439 196.449Z" fill="url(#paint35_linear_2_521)"/>
<path d="M1.36331 326.079C1.36331 326.079 22.3999 327.538 40.8459 319.307C40.8459 319.307 45.3386 289.417 53.7663 277.923C53.7663 277.923 50.4871 322.423 103.12 300.222C101.677 299.484 101.66 299.041 101.267 297.648C101.086 297.057 101.398 294.172 100.775 294.221C93.954 294.68 64.9323 299.845 74.5242 261.002C78.3118 245.671 68.146 227.061 58.9476 223.027C53.2089 220.519 49.7328 218.715 47.9292 217.731C46.9454 217.19 45.7321 217.321 44.8795 218.059C37.0092 224.897 0.592676 260.231 1.36331 326.079Z" fill="#06BF97"/>
<path d="M70.4251 177.362C70.4251 177.362 76.9017 191.267 77.492 198.629C78.0822 205.991 79.8039 210.746 71.3105 212.434C62.8171 214.14 55.5207 210.073 51.4544 202.81C51.4544 202.81 45.0762 191.644 46.3223 186.971C47.5685 182.314 70.4251 177.362 70.4251 177.362Z" fill="url(#paint36_linear_2_521)"/>
<path d="M54.2254 197.465L55.3076 197.432C55.3076 197.432 50.6346 188.431 54.5042 186.725C58.3737 185.02 73.7536 181.479 76.9509 175.92C80.0334 170.542 77.0001 163.787 72.655 161.983C72.3763 161.868 72.0648 162 71.9336 162.278L71.5893 162.967C71.3597 163.426 70.6711 163.377 70.5235 162.885C70.3759 162.409 69.7365 162.327 69.4741 162.754C68.4903 164.426 65.8013 167.164 58.4065 168.706C47.9292 170.919 41.0755 175.346 41.0919 182.626C41.0919 183.085 40.6 183.348 40.2065 183.118C39.4194 182.659 38.1733 182.479 36.5501 183.905C33.7135 186.414 35.058 192.677 41.5346 197.711C41.8461 197.957 41.8461 198.416 41.5346 198.646C40.4032 199.416 38.7308 201.236 43.2398 203.499C47.8308 205.811 50.5198 205.483 51.52 205.188C51.7988 205.106 51.9627 204.86 51.9463 204.581L51.3889 198.154C51.3561 197.826 51.6184 197.531 51.9463 197.531L54.2254 197.465Z" fill="url(#paint37_linear_2_521)"/>
<path d="M54.5206 198.809C54.5206 198.809 51.9627 189.89 47.9948 192.513C44.0268 195.137 50.3395 202.515 53.586 202.777L54.5206 198.809Z" fill="url(#paint38_linear_2_521)"/>
<g opacity="0.3">
<path opacity="0.3" d="M328.8 61.4077C328.128 61.4077 327.538 60.8994 327.456 60.1944C327.292 58.6859 327.21 57.1446 327.177 55.6198C327.161 54.8819 327.751 54.2588 328.489 54.2424C328.505 54.2424 328.505 54.2424 328.522 54.2424C329.259 54.2424 329.85 54.8327 329.866 55.5706C329.899 57.0299 329.981 58.4891 330.128 59.9156C330.21 60.6535 329.669 61.3093 328.932 61.3913C328.899 61.3913 328.85 61.4077 328.8 61.4077ZM328.882 49.6678C328.833 49.6678 328.784 49.6678 328.718 49.6514C327.981 49.5695 327.456 48.8972 327.538 48.1594C327.718 46.6509 327.964 45.126 328.276 43.6339C328.423 42.9125 329.128 42.437 329.866 42.5846C330.588 42.7321 331.063 43.4536 330.915 44.175C330.62 45.5851 330.391 47.0444 330.227 48.4709C330.145 49.1759 329.555 49.6678 328.882 49.6678ZM331.555 38.2559C331.407 38.2559 331.26 38.2231 331.096 38.1739C330.391 37.928 330.03 37.1574 330.276 36.4523C330.784 35.0094 331.375 33.5829 331.998 32.2056C332.309 31.5334 333.113 31.2382 333.785 31.5334C334.457 31.8449 334.752 32.6483 334.457 33.3206C333.85 34.6323 333.309 35.9932 332.817 37.3541C332.621 37.9116 332.112 38.2559 331.555 38.2559ZM336.703 27.7294C336.457 27.7294 336.212 27.6638 335.982 27.5162C335.359 27.1227 335.179 26.2865 335.572 25.6634C336.392 24.3845 337.277 23.1056 338.195 21.9087C338.655 21.3184 339.491 21.2036 340.081 21.6627C340.671 22.1218 340.786 22.958 340.327 23.5483C339.442 24.6961 338.605 25.893 337.835 27.1227C337.589 27.5163 337.146 27.7294 336.703 27.7294ZM344.082 18.613C343.737 18.613 343.393 18.4818 343.131 18.2195C342.606 17.6948 342.606 16.8422 343.147 16.3175C344.229 15.2517 345.377 14.2187 346.541 13.2349C347.115 12.7594 347.968 12.8414 348.443 13.3989C348.919 13.9728 348.837 14.8254 348.263 15.3009C347.148 16.2355 346.066 17.2193 345.033 18.2359C344.754 18.4818 344.426 18.613 344.082 18.613ZM353.28 11.3494C352.838 11.3494 352.395 11.1198 352.132 10.7099C351.739 10.0704 351.936 9.25061 352.559 8.85709C353.854 8.05367 355.199 7.29943 356.56 6.59438C357.215 6.25006 358.035 6.5124 358.363 7.18465C358.707 7.84051 358.445 8.66033 357.773 8.98826C356.478 9.64412 355.199 10.3656 353.969 11.1362C353.772 11.2838 353.526 11.3494 353.28 11.3494ZM402.601 8.13564C402.42 8.13564 402.224 8.10285 402.043 8.02087C400.732 7.4306 399.371 6.87312 397.993 6.39763C397.288 6.15168 396.928 5.38105 397.173 4.676C397.419 3.97095 398.19 3.61023 398.895 3.85618C400.338 4.36447 401.764 4.93834 403.158 5.5778C403.83 5.88934 404.142 6.67636 403.83 7.36501C403.601 7.85691 403.109 8.13564 402.601 8.13564ZM363.856 6.31564C363.298 6.31564 362.774 5.97132 362.577 5.41384C362.331 4.70879 362.708 3.93816 363.413 3.70861C364.856 3.21672 366.332 2.77401 367.807 2.39689C368.529 2.21653 369.267 2.65924 369.447 3.38068C369.627 4.10212 369.185 4.83996 368.463 5.02032C367.053 5.36465 365.66 5.79096 364.282 6.26646C364.151 6.28285 364.003 6.31564 363.856 6.31564ZM391.451 4.52843C391.369 4.52843 391.271 4.51203 391.189 4.49564C389.779 4.2005 388.319 3.97095 386.877 3.80699C386.139 3.72501 385.614 3.05275 385.696 2.31491C385.778 1.57707 386.45 1.05238 387.188 1.13437C388.697 1.31473 390.221 1.56067 391.713 1.85581C392.435 2.00338 392.91 2.70843 392.763 3.44627C392.632 4.08573 392.074 4.52843 391.451 4.52843ZM375.301 3.7578C374.628 3.7578 374.038 3.24951 373.956 2.56086C373.874 1.82302 374.415 1.15076 375.153 1.08518C376.662 0.921214 378.203 0.822832 379.728 0.790039C379.744 0.790039 379.744 0.790039 379.76 0.790039C380.498 0.790039 381.089 1.38031 381.105 2.10175C381.121 2.83959 380.531 3.46266 379.793 3.47906C378.35 3.51185 376.875 3.61023 375.448 3.7578C375.399 3.7578 375.35 3.7578 375.301 3.7578Z" fill="#06BF97"/>
<path opacity="0.3" d="M410.815 12.8087C410.553 12.8087 410.291 12.7267 410.045 12.5628C409.471 12.1693 408.881 11.7757 408.307 11.3986C407.684 11.0051 407.487 10.1689 407.897 9.54583C408.29 8.92276 409.127 8.72601 409.75 9.13592C410.373 9.52943 410.979 9.93934 411.586 10.3657C412.193 10.792 412.34 11.6282 411.93 12.2348C411.668 12.612 411.242 12.8087 410.815 12.8087Z" fill="#06BF97"/>
</g>
<g opacity="0.3">
<path opacity="0.3" d="M432.688 47.5368C432.033 47.5368 431.475 47.0613 431.36 46.4054C431.245 45.7168 431.131 45.0282 430.983 44.3395C430.836 43.6181 431.311 42.8966 432.033 42.749C432.77 42.6015 433.475 43.077 433.623 43.7984C433.771 44.5199 433.902 45.2577 434.016 45.9791C434.131 46.717 433.639 47.4056 432.902 47.5204C432.82 47.5368 432.754 47.5368 432.688 47.5368Z" fill="#06BF97"/>
<path opacity="0.3" d="M380.974 108.285C380.351 108.285 379.728 108.269 379.105 108.253C378.367 108.22 377.777 107.597 377.809 106.859C377.842 106.121 378.465 105.531 379.203 105.564C380.646 105.613 382.089 105.596 383.499 105.531C384.237 105.498 384.876 106.072 384.909 106.81C384.942 107.548 384.368 108.187 383.63 108.22C382.761 108.269 381.859 108.285 380.974 108.285ZM372.054 107.531C371.972 107.531 371.907 107.531 371.825 107.515C370.349 107.269 368.857 106.941 367.414 106.564C366.693 106.383 366.266 105.646 366.447 104.924C366.627 104.203 367.365 103.776 368.086 103.957C369.464 104.317 370.874 104.613 372.284 104.859C373.022 104.99 373.514 105.678 373.382 106.416C373.268 107.072 372.694 107.531 372.054 107.531ZM390.664 107.384C390.025 107.384 389.467 106.941 389.336 106.285C389.205 105.547 389.68 104.859 390.402 104.711C391.796 104.449 393.206 104.121 394.583 103.744C395.304 103.547 396.042 103.957 396.239 104.678C396.436 105.4 396.026 106.137 395.304 106.334C393.862 106.728 392.369 107.072 390.91 107.351C390.828 107.384 390.746 107.384 390.664 107.384ZM360.954 104.35C360.79 104.35 360.61 104.317 360.446 104.252C359.052 103.678 357.675 103.039 356.346 102.35C355.691 102.006 355.428 101.202 355.773 100.53C356.117 99.874 356.92 99.6117 357.593 99.956C358.855 100.612 360.167 101.219 361.479 101.76C362.167 102.038 362.495 102.825 362.216 103.514C361.987 104.039 361.479 104.35 360.954 104.35ZM401.683 104.006C401.158 104.006 400.666 103.694 400.453 103.186C400.158 102.497 400.469 101.71 401.158 101.415C402.47 100.858 403.765 100.218 405.011 99.5461C405.667 99.2018 406.487 99.4477 406.831 100.104C407.175 100.759 406.93 101.579 406.274 101.924C404.946 102.629 403.585 103.301 402.207 103.891C402.043 103.973 401.863 104.006 401.683 104.006ZM411.701 98.3C411.291 98.3 410.881 98.1032 410.619 97.7425C410.176 97.1358 410.307 96.2996 410.914 95.8569C412.062 95.0207 413.193 94.1189 414.275 93.2007C414.833 92.7088 415.685 92.7744 416.177 93.3483C416.669 93.9057 416.603 94.7584 416.03 95.2502C414.898 96.234 413.701 97.1686 412.488 98.054C412.258 98.218 411.98 98.3 411.701 98.3ZM420.243 90.5445C419.932 90.5445 419.604 90.4297 419.358 90.2001C418.801 89.7082 418.751 88.8556 419.243 88.2982C420.194 87.2324 421.096 86.101 421.949 84.9697C422.391 84.3794 423.228 84.2482 423.834 84.6909C424.425 85.1336 424.556 85.9699 424.113 86.5765C423.211 87.7735 422.26 88.954 421.276 90.0854C420.981 90.3805 420.621 90.5445 420.243 90.5445ZM426.884 81.1001C426.671 81.1001 426.441 81.0509 426.245 80.9361C425.589 80.5754 425.359 79.7556 425.72 79.1161C426.408 77.87 427.048 76.5747 427.622 75.2794C427.917 74.6071 428.72 74.2956 429.393 74.5907C430.065 74.8859 430.376 75.6893 430.081 76.3615C429.475 77.7388 428.802 79.0998 428.081 80.4115C427.819 80.8542 427.359 81.1001 426.884 81.1001ZM431.295 70.426C431.163 70.426 431.049 70.4096 430.918 70.3768C430.196 70.1637 429.786 69.4258 429.999 68.7044C430.393 67.3435 430.737 65.9334 431.016 64.5397C431.163 63.8183 431.868 63.3428 432.59 63.4739C433.311 63.6215 433.787 64.3265 433.656 65.0644C433.361 66.5401 433 68.0157 432.59 69.4586C432.41 70.0489 431.869 70.426 431.295 70.426ZM433.246 59.0633C433.213 59.0633 433.197 59.0633 433.164 59.0633C432.426 59.0141 431.852 58.3746 431.901 57.6368C431.967 56.5874 432 55.5217 432 54.4887C432 54.1116 432 53.7345 431.983 53.3573C431.967 52.6195 432.557 51.9964 433.295 51.98C434.049 51.9472 434.656 52.5539 434.672 53.2917C434.689 53.6853 434.689 54.0788 434.689 54.4887C434.689 55.5872 434.656 56.7022 434.59 57.8008C434.541 58.5058 433.951 59.0633 433.246 59.0633Z" fill="#06BF97"/>
<path opacity="0.3" d="M350.804 98.7759C350.542 98.7759 350.263 98.6939 350.034 98.5299C349.444 98.1036 348.837 97.6773 348.247 97.2182C347.656 96.7591 347.542 95.9229 348.001 95.3326C348.46 94.7423 349.296 94.6276 349.886 95.0867C350.444 95.513 351.018 95.9229 351.575 96.3328C352.182 96.7591 352.329 97.5953 351.903 98.202C351.657 98.5791 351.231 98.7759 350.804 98.7759Z" fill="#06BF97"/>
</g>
<path d="M352.625 83.1658C352.788 83.379 353.084 83.4446 353.33 83.3626L360.511 80.7228C363.348 82.9035 366.545 84.6579 370.021 85.8385L371.776 93.2824C371.841 93.5448 372.054 93.7416 372.317 93.7579L381.449 94.6761C381.712 94.7089 381.974 94.5614 382.089 94.3154L385.303 87.3633C388.959 86.8878 392.435 85.8221 395.649 84.248L402.158 88.2815C402.388 88.4291 402.683 88.3963 402.88 88.2323L409.996 82.428C410.209 82.264 410.274 81.9689 410.192 81.723L407.553 74.5413C409.733 71.7047 411.488 68.5074 412.668 65.0314L420.112 63.277C420.375 63.2114 420.571 62.9982 420.588 62.7359L421.506 53.6031C421.539 53.3407 421.391 53.0784 421.145 52.9636L414.193 49.7499C413.718 46.0935 412.652 42.6174 411.078 39.4037L415.111 32.8943C415.259 32.6648 415.226 32.3697 415.062 32.1729L409.258 25.0568C409.094 24.8437 408.799 24.7781 408.553 24.8601L401.371 27.4999C398.535 25.3192 395.337 23.5648 391.861 22.3842L390.107 14.9402C390.041 14.6779 389.828 14.4811 389.566 14.4647L380.433 13.5465C380.171 13.5137 379.908 13.6613 379.793 13.9073L376.58 20.8593C372.923 21.3348 369.447 22.4006 366.234 23.9747L359.724 19.9411C359.495 19.7936 359.199 19.8264 359.003 19.9903L351.887 25.7947C351.674 25.9586 351.608 26.2538 351.69 26.4997L354.33 33.6814C352.149 36.518 350.395 39.7153 349.214 43.1913L341.77 44.9457C341.508 45.0113 341.311 45.2245 341.295 45.4868L340.376 54.6196C340.344 54.882 340.491 55.1443 340.737 55.2591L347.689 58.4728C348.165 62.1292 349.23 65.6052 350.804 68.8189L346.771 75.3283C346.623 75.5579 346.656 75.853 346.82 76.0498L352.625 83.1658Z" fill="#06BF97"/>
<path d="M380.958 63.3431C376.465 63.3431 372.513 60.031 371.825 55.4564C371.087 50.4227 374.579 45.7169 379.613 44.9791C382.056 44.6184 384.483 45.225 386.467 46.7007C388.451 48.1764 389.73 50.3243 390.09 52.7674C390.828 57.8011 387.336 62.5069 382.302 63.2447C381.859 63.3103 381.4 63.3431 380.958 63.3431ZM380.974 47.045C380.63 47.045 380.269 47.0778 379.925 47.127C376.071 47.7009 373.382 51.3081 373.956 55.1613C374.53 59.0145 378.121 61.7035 381.991 61.1296C385.844 60.5557 388.533 56.9485 387.959 53.0953C387.68 51.2261 386.696 49.5701 385.171 48.4387C383.958 47.5205 382.482 47.045 380.974 47.045Z" fill="#BDD0FB"/>
<path d="M381.154 76.6733C380.384 76.6733 379.597 76.6405 378.826 76.5585C378.58 76.5257 378.334 76.5093 378.088 76.4765C376.875 76.3126 375.694 76.0502 374.53 75.7059C374.514 75.7059 374.497 75.6895 374.481 75.6895C374.432 75.6731 374.399 75.6567 374.35 75.6403C374.268 75.6075 374.169 75.5911 374.087 75.5583C373.858 75.4927 373.71 75.2796 373.71 75.05C373.71 75.0009 373.727 74.9353 373.743 74.8861C373.842 74.6073 374.137 74.4434 374.415 74.5418C375.875 75.0172 377.383 75.3288 378.924 75.4928C386.549 76.2634 393.665 72.9677 398.092 67.3601C400.551 64.2448 402.191 60.408 402.617 56.1613C402.699 55.4235 402.732 54.6693 402.732 53.9314C402.732 48.9633 401.043 44.2083 397.862 40.306C394.206 35.8297 389.041 33.0424 383.286 32.4685C371.415 31.2715 360.79 39.9453 359.593 51.7999C359.511 52.5377 359.478 53.2592 359.478 53.997C359.478 57.1615 360.167 60.2932 361.511 63.1626C361.544 63.2446 361.561 63.3102 361.561 63.3922C361.561 63.5889 361.446 63.7857 361.249 63.8841C360.987 64.0152 360.659 63.9005 360.528 63.6217C359.118 60.6048 358.38 57.3255 358.38 53.997C358.38 53.2264 358.413 52.4557 358.494 51.7015C359.757 39.2566 370.923 30.1402 383.368 31.4027C389.402 32.0094 394.829 34.9443 398.666 39.6337C402.011 43.7164 403.781 48.7338 403.781 53.9314C403.781 54.7021 403.749 55.4891 403.667 56.2597C403.06 62.2936 400.125 67.7208 395.436 71.5576C391.369 74.9025 386.352 76.6733 381.154 76.6733Z" fill="#BDD0FB"/>
<g opacity="0.3">
<path opacity="0.3" d="M282.874 96.8737C282.513 96.8737 282.185 96.6441 282.07 96.2834C281.874 95.6111 281.693 94.9061 281.529 94.2174C281.431 93.7747 281.71 93.332 282.152 93.2173C282.595 93.1189 283.038 93.3976 283.153 93.8403C283.3 94.4962 283.481 95.152 283.661 95.8079C283.792 96.2506 283.53 96.7097 283.103 96.8409C283.021 96.8573 282.956 96.8737 282.874 96.8737Z" fill="#06BF97"/>
<path opacity="0.3" d="M281.644 90.5939C281.218 90.5939 280.857 90.2824 280.824 89.8397C280.693 88.6264 280.644 87.3966 280.644 86.1833C280.644 85.9209 280.644 85.675 280.644 85.4126C280.66 84.9535 281.054 84.6092 281.497 84.5928C281.956 84.6092 282.316 84.9863 282.316 85.4454C282.316 85.6914 282.316 85.9373 282.316 86.1833C282.316 87.3474 282.382 88.5116 282.497 89.6593C282.546 90.1184 282.218 90.5283 281.759 90.5775C281.693 90.5939 281.677 90.5939 281.644 90.5939ZM281.825 81.9694C281.792 81.9694 281.743 81.9694 281.71 81.9694C281.251 81.9038 280.939 81.4775 281.005 81.0348C281.218 79.5755 281.513 78.1162 281.907 76.7061C282.021 76.2634 282.48 76.0011 282.923 76.1159C283.366 76.2306 283.628 76.6897 283.513 77.1324C283.153 78.477 282.858 79.8706 282.661 81.2643C282.579 81.6579 282.234 81.9694 281.825 81.9694ZM284.087 73.64C283.989 73.64 283.874 73.6236 283.776 73.5744C283.349 73.3941 283.153 72.9186 283.317 72.4922C283.874 71.1313 284.53 69.7868 285.251 68.5079C285.481 68.1144 285.989 67.9668 286.383 68.1964C286.776 68.4259 286.924 68.9342 286.694 69.3277C286.006 70.5575 285.383 71.82 284.842 73.1317C284.727 73.4432 284.415 73.64 284.087 73.64ZM288.35 66.1304C288.186 66.1304 288.006 66.0812 287.858 65.9665C287.498 65.6877 287.416 65.1794 287.678 64.8023C288.563 63.6218 289.514 62.474 290.531 61.4083C290.843 61.0803 291.367 61.0639 291.712 61.3755C292.04 61.687 292.056 62.2117 291.744 62.556C290.777 63.5726 289.859 64.6547 289.023 65.7861C288.842 65.9993 288.596 66.1304 288.35 66.1304ZM294.302 59.867C294.056 59.867 293.827 59.7686 293.663 59.5555C293.368 59.1947 293.417 58.67 293.778 58.3913C294.909 57.4567 296.122 56.5877 297.368 55.8007C297.762 55.5547 298.27 55.6695 298.516 56.063C298.762 56.4565 298.647 56.9648 298.254 57.2108C297.073 57.965 295.925 58.7848 294.827 59.6866C294.663 59.8178 294.483 59.867 294.302 59.867ZM301.582 55.2596C301.271 55.2596 300.976 55.0792 300.828 54.7841C300.631 54.3742 300.812 53.8823 301.222 53.6855C302.55 53.0625 303.927 52.505 305.337 52.0459C305.78 51.8983 306.239 52.1443 306.386 52.5706C306.534 53.0133 306.288 53.4724 305.862 53.6199C304.534 54.0626 303.205 54.5873 301.943 55.1776C301.828 55.2268 301.697 55.2596 301.582 55.2596ZM309.78 52.5706C309.387 52.5706 309.043 52.2918 308.961 51.8983C308.879 51.4556 309.174 51.0129 309.617 50.9145C311.059 50.6358 312.535 50.439 314.011 50.3407C314.47 50.3243 314.863 50.6522 314.896 51.1113C314.929 51.5704 314.585 51.9639 314.126 51.9967C312.715 52.0951 311.322 52.2754 309.944 52.5542C309.879 52.5706 309.83 52.5706 309.78 52.5706ZM322.684 52.4558C322.635 52.4558 322.586 52.4558 322.537 52.4394C321.34 52.2262 320.11 52.0787 318.897 51.9967C318.717 51.9803 318.536 51.9639 318.339 51.9639C317.88 51.9475 317.536 51.554 317.552 51.0949C317.569 50.6358 317.962 50.2751 318.421 50.3079C318.618 50.3243 318.815 50.3243 318.995 50.3407C320.274 50.4226 321.553 50.5866 322.816 50.8162C323.275 50.8981 323.57 51.3244 323.488 51.7835C323.439 52.1771 323.078 52.4558 322.684 52.4558Z" fill="#06BF97"/>
</g>
<g opacity="0.3">
<path opacity="0.3" d="M317.028 122.058C316.569 122.058 316.208 121.697 316.192 121.238C316.192 120.779 316.552 120.402 317.011 120.402C318.389 120.386 319.782 120.287 321.143 120.091C321.602 120.041 322.012 120.353 322.078 120.796C322.143 121.255 321.816 121.665 321.373 121.73C319.946 121.927 318.487 122.042 317.028 122.058ZM312.781 121.861C312.748 121.861 312.715 121.861 312.699 121.861C311.256 121.714 309.813 121.468 308.403 121.14C307.961 121.042 307.682 120.582 307.78 120.14C307.879 119.697 308.338 119.418 308.78 119.517C310.125 119.828 311.502 120.058 312.879 120.205C313.339 120.255 313.666 120.664 313.617 121.124C313.552 121.55 313.191 121.861 312.781 121.861ZM325.439 120.927C325.078 120.927 324.734 120.681 324.636 120.304C324.521 119.861 324.783 119.402 325.226 119.287C326.57 118.943 327.882 118.5 329.178 117.992C329.604 117.828 330.079 118.025 330.26 118.451C330.424 118.877 330.227 119.353 329.801 119.533C328.456 120.074 327.062 120.517 325.669 120.894C325.57 120.91 325.505 120.927 325.439 120.927ZM304.501 119.943C304.402 119.943 304.304 119.927 304.222 119.894C302.861 119.402 301.517 118.812 300.221 118.156C299.811 117.943 299.648 117.451 299.861 117.041C300.074 116.631 300.566 116.467 300.976 116.68C302.205 117.303 303.484 117.861 304.78 118.336C305.206 118.5 305.435 118.976 305.271 119.402C305.157 119.73 304.845 119.943 304.501 119.943ZM333.326 117.795C333.031 117.795 332.752 117.631 332.588 117.369C332.375 116.959 332.522 116.467 332.916 116.237C334.129 115.582 335.31 114.827 336.425 114.024C336.802 113.762 337.31 113.844 337.589 114.221C337.851 114.598 337.769 115.106 337.392 115.385C336.212 116.221 334.982 117.008 333.703 117.697C333.588 117.762 333.457 117.795 333.326 117.795ZM340.229 112.843C339.999 112.843 339.786 112.745 339.622 112.581C339.311 112.237 339.327 111.712 339.671 111.401C340.688 110.466 341.655 109.466 342.557 108.416C342.852 108.072 343.377 108.023 343.721 108.334C344.065 108.629 344.115 109.154 343.803 109.499C342.869 110.597 341.852 111.646 340.77 112.63C340.622 112.778 340.425 112.843 340.229 112.843ZM345.754 106.4C345.59 106.4 345.443 106.35 345.295 106.252C344.918 106.006 344.803 105.481 345.066 105.104C345.836 103.957 346.541 102.743 347.148 101.513C347.361 101.104 347.853 100.94 348.263 101.136C348.673 101.349 348.837 101.841 348.64 102.251C347.984 103.547 347.263 104.809 346.459 106.022C346.279 106.268 346.017 106.4 345.754 106.4Z" fill="#06BF97"/>
<path opacity="0.3" d="M296.909 116.057C296.745 116.057 296.581 116.008 296.45 115.91C295.86 115.516 295.286 115.09 294.729 114.664C294.368 114.385 294.302 113.86 294.581 113.5C294.86 113.139 295.384 113.073 295.745 113.352C296.27 113.762 296.827 114.155 297.385 114.533C297.762 114.795 297.86 115.303 297.614 115.68C297.434 115.926 297.172 116.057 296.909 116.057Z" fill="#06BF97"/>
</g>
<path d="M297.598 105.318C297.713 105.449 297.893 105.515 298.073 105.449L302.878 103.678C304.78 105.138 306.911 106.302 309.239 107.105L310.42 112.09C310.469 112.27 310.617 112.401 310.781 112.418L316.897 113.041C317.077 113.057 317.241 112.959 317.323 112.795L319.471 108.155C321.914 107.843 324.242 107.122 326.39 106.072L330.752 108.761C330.899 108.86 331.096 108.843 331.243 108.728L335.998 104.843C336.13 104.728 336.195 104.547 336.13 104.367L334.359 99.5628C335.818 97.6609 336.982 95.5293 337.786 93.201L342.77 92.0205C342.95 91.9713 343.082 91.8237 343.098 91.6598L343.721 85.5439C343.738 85.3635 343.639 85.1996 343.475 85.1176L338.835 82.9697C338.523 80.5266 337.802 78.1983 336.753 76.0503L339.442 71.6889C339.54 71.5413 339.524 71.3446 339.409 71.197L335.523 66.442C335.408 66.3109 335.228 66.2453 335.047 66.3109L330.243 68.0817C328.341 66.6224 326.21 65.4582 323.881 64.6548L322.701 59.6703C322.652 59.4899 322.521 59.3588 322.34 59.3424L316.224 58.7193C316.044 58.7029 315.88 58.8013 315.798 58.9653L313.65 63.6055C311.207 63.917 308.879 64.6384 306.731 65.6878L302.369 62.9988C302.222 62.9004 302.025 62.9168 301.877 63.0316L297.122 66.9175C296.991 67.0323 296.926 67.2127 296.991 67.393L298.762 72.1972C297.303 74.0992 296.139 76.2307 295.335 78.559L290.351 79.7396C290.17 79.7887 290.039 79.9363 290.023 80.1003L289.4 86.2161C289.383 86.3965 289.482 86.5605 289.646 86.6425L294.286 88.7904C294.597 91.2335 295.319 93.5617 296.368 95.7097L293.679 100.071C293.581 100.219 293.597 100.415 293.712 100.563L297.598 105.318Z" fill="#06BF97"/>
<path d="M316.536 92.1681C315.191 92.1681 313.896 91.7418 312.797 90.9219C311.453 89.9218 310.567 88.4461 310.321 86.79C309.813 83.3632 312.191 80.1659 315.617 79.6576C319.061 79.1657 322.242 81.5268 322.75 84.9536C322.996 86.6097 322.586 88.2657 321.569 89.6266C320.569 90.9711 319.094 91.8565 317.437 92.1025C317.159 92.1517 316.847 92.1681 316.536 92.1681ZM316.552 81.2644C316.323 81.2644 316.109 81.2808 315.88 81.3136C313.355 81.6907 311.6 84.0354 311.977 86.5605C312.158 87.7902 312.797 88.856 313.797 89.5938C314.798 90.3317 316.011 90.6432 317.224 90.4628C318.454 90.2825 319.52 89.643 320.258 88.6428C320.996 87.6426 321.307 86.4293 321.127 85.216C320.799 82.9205 318.815 81.2644 316.552 81.2644Z" fill="#BDD0FB"/>
<path d="M316.667 101.448C316.142 101.448 315.618 101.415 315.076 101.366C314.011 101.251 312.961 101.038 311.945 100.727C311.895 100.71 311.846 100.694 311.814 100.678C311.469 100.563 311.24 100.235 311.24 99.8906C311.24 99.8086 311.256 99.7266 311.289 99.6282C311.436 99.1855 311.896 98.956 312.338 99.0872C313.289 99.3987 314.257 99.5954 315.257 99.6938C315.306 99.6938 315.372 99.7102 315.421 99.7102C317.765 99.9234 320.077 99.5462 322.192 98.6444C323.34 98.1525 324.422 97.4967 325.423 96.6933L325.439 96.6769C325.472 96.6605 325.488 96.6441 325.521 96.6113C328.423 94.2502 330.227 90.9053 330.604 87.1833C330.653 86.7078 330.669 86.2159 330.669 85.7404C330.669 82.5267 329.571 79.4442 327.521 76.9192C325.16 74.017 321.815 72.2134 318.093 71.8363C314.371 71.4591 310.731 72.5577 307.829 74.9188C304.927 77.2799 303.123 80.6248 302.746 84.3467C302.697 84.8222 302.681 85.2977 302.681 85.7732C302.681 87.8228 303.123 89.8395 304.009 91.7087C304.058 91.8235 304.091 91.9383 304.091 92.0695C304.091 92.381 303.91 92.6761 303.615 92.8237C303.205 93.0205 302.697 92.8401 302.517 92.4302C301.549 90.3478 301.041 88.0851 301.041 85.7896C301.041 85.2649 301.074 84.7239 301.123 84.1992C301.549 80.0345 303.566 76.2961 306.796 73.6399C310.043 71 314.109 69.7703 318.274 70.1966C322.438 70.6229 326.177 72.6397 328.833 75.8698C331.129 78.69 332.358 82.1496 332.358 85.7404C332.358 86.2815 332.325 86.8062 332.276 87.3473C331.407 95.4307 324.586 101.448 316.667 101.448Z" fill="#BDD0FB"/>
<g opacity="0.3">
<path opacity="0.3" d="M428.064 160.032C428.081 160.393 427.851 160.737 427.49 160.852C426.818 161.065 426.13 161.278 425.457 161.459C425.015 161.573 424.555 161.311 424.441 160.868C424.326 160.426 424.588 159.967 425.031 159.852C425.687 159.688 426.343 159.491 426.982 159.278C427.425 159.13 427.884 159.376 428.032 159.803C428.048 159.885 428.064 159.95 428.064 160.032Z" fill="#06BF97"/>
<path opacity="0.3" d="M421.834 161.475C421.85 161.901 421.539 162.262 421.112 162.328C419.915 162.492 418.686 162.59 417.472 162.639C417.21 162.656 416.964 162.656 416.702 162.656C416.243 162.656 415.882 162.262 415.865 161.836C415.865 161.377 416.226 161 416.685 161C416.931 161 417.177 161 417.423 160.983C418.587 160.95 419.751 160.852 420.899 160.688C421.358 160.623 421.768 160.95 421.834 161.393C421.834 161.41 421.834 161.442 421.834 161.475ZM413.209 161.574C413.209 161.606 413.209 161.656 413.209 161.688C413.16 162.147 412.75 162.475 412.291 162.426C410.832 162.262 409.356 162.016 407.93 161.672C407.487 161.574 407.208 161.114 407.306 160.672C407.405 160.229 407.864 159.95 408.307 160.049C409.668 160.377 411.061 160.606 412.471 160.77C412.881 160.819 413.193 161.164 413.209 161.574ZM404.814 159.573C404.814 159.672 404.798 159.786 404.765 159.885C404.601 160.311 404.126 160.541 403.699 160.377C402.322 159.868 400.961 159.262 399.649 158.573C399.239 158.36 399.092 157.852 399.305 157.458C399.518 157.048 400.026 156.901 400.42 157.114C401.666 157.77 402.961 158.343 404.273 158.835C404.601 158.95 404.798 159.245 404.814 159.573ZM397.157 155.572C397.157 155.736 397.108 155.917 397.009 156.064C396.747 156.441 396.222 156.54 395.845 156.277C394.632 155.441 393.468 154.523 392.369 153.539C392.025 153.228 391.992 152.703 392.304 152.359C392.615 152.014 393.14 151.982 393.484 152.293C394.534 153.228 395.649 154.097 396.796 154.9C397.026 155.081 397.157 155.326 397.157 155.572ZM390.713 149.834C390.713 150.08 390.631 150.309 390.435 150.49C390.09 150.785 389.566 150.752 389.254 150.408C388.287 149.293 387.368 148.128 386.549 146.915C386.286 146.538 386.385 146.013 386.762 145.767C387.139 145.521 387.664 145.603 387.909 145.981C388.697 147.145 389.566 148.26 390.5 149.325C390.648 149.473 390.713 149.653 390.713 149.834ZM385.876 142.701C385.893 143.013 385.712 143.324 385.417 143.472C385.007 143.685 384.515 143.521 384.302 143.111C383.63 141.799 383.04 140.439 382.531 139.061C382.367 138.635 382.597 138.159 383.023 137.995C383.45 137.831 383.925 138.061 384.089 138.487C384.565 139.799 385.138 141.111 385.778 142.357C385.844 142.455 385.86 142.586 385.876 142.701ZM382.909 134.601C382.925 134.995 382.663 135.356 382.269 135.438C381.826 135.536 381.384 135.257 381.269 134.815C380.941 133.388 380.695 131.912 380.547 130.453C380.515 129.994 380.826 129.584 381.285 129.535C381.744 129.486 382.154 129.814 382.204 130.273C382.351 131.666 382.581 133.077 382.892 134.437C382.909 134.487 382.909 134.552 382.909 134.601ZM382.384 121.697C382.384 121.747 382.384 121.796 382.384 121.845C382.204 123.042 382.105 124.272 382.056 125.501C382.056 125.682 382.04 125.862 382.04 126.059C382.023 126.518 381.646 126.879 381.187 126.879C380.728 126.879 380.351 126.485 380.367 126.026C380.367 125.829 380.384 125.633 380.384 125.436C380.433 124.157 380.547 122.862 380.728 121.599C380.793 121.14 381.22 120.828 381.662 120.894C382.072 120.976 382.367 121.304 382.384 121.697Z" fill="#06BF97"/>
</g>
<g opacity="0.3">
<path opacity="0.3" d="M452.118 125.075C452.134 125.534 451.774 125.911 451.331 125.927C450.872 125.944 450.478 125.6 450.462 125.14C450.396 123.763 450.249 122.369 450.019 121.009C449.954 120.566 450.249 120.123 450.708 120.058C451.167 119.976 451.593 120.287 451.659 120.746C451.905 122.156 452.052 123.616 452.118 125.075C452.118 125.075 452.118 125.058 452.118 125.075ZM452.069 129.322C452.069 129.354 452.069 129.387 452.069 129.42C451.954 130.863 451.774 132.322 451.495 133.732C451.413 134.175 450.97 134.47 450.511 134.388C450.052 134.306 449.773 133.863 449.855 133.404C450.118 132.043 450.314 130.666 450.413 129.289C450.446 128.83 450.839 128.485 451.298 128.518C451.724 128.551 452.052 128.912 452.069 129.322ZM450.708 116.713C450.724 117.073 450.478 117.418 450.118 117.533C449.675 117.664 449.216 117.418 449.085 116.975C448.691 115.647 448.216 114.335 447.658 113.073C447.478 112.646 447.675 112.154 448.084 111.974C448.511 111.794 449.003 111.991 449.183 112.4C449.757 113.729 450.265 115.106 450.675 116.483C450.691 116.565 450.708 116.631 450.708 116.713ZM450.413 137.651C450.413 137.749 450.396 137.848 450.38 137.93C449.921 139.307 449.396 140.668 448.773 141.98C448.576 142.39 448.084 142.57 447.675 142.373C447.265 142.176 447.084 141.684 447.281 141.275C447.871 140.028 448.38 138.733 448.806 137.421C448.953 136.979 449.413 136.749 449.855 136.897C450.183 137.011 450.413 137.323 450.413 137.651ZM447.314 108.924C447.33 109.22 447.183 109.515 446.904 109.662C446.51 109.892 446.002 109.761 445.773 109.367C445.068 108.187 444.297 107.022 443.444 105.924C443.165 105.563 443.231 105.038 443.592 104.76C443.953 104.481 444.477 104.547 444.756 104.907C445.641 106.055 446.461 107.268 447.183 108.514C447.281 108.662 447.314 108.793 447.314 108.924ZM442.165 102.185C442.165 102.415 442.083 102.645 441.919 102.808C441.591 103.136 441.067 103.12 440.739 102.792C439.771 101.808 438.738 100.874 437.656 100.005C437.296 99.7096 437.246 99.2013 437.525 98.8406C437.82 98.4798 438.329 98.4306 438.689 98.7094C439.821 99.6112 440.903 100.595 441.919 101.628C442.067 101.792 442.149 101.989 442.165 102.185ZM435.525 96.873C435.525 97.037 435.492 97.1845 435.394 97.3321C435.148 97.7256 434.639 97.8404 434.246 97.5944C433.065 96.873 431.836 96.2007 430.589 95.6268C430.18 95.4301 429.999 94.9382 430.18 94.5283C430.376 94.1184 430.868 93.9216 431.278 94.1184C432.59 94.725 433.885 95.4137 435.115 96.1843C435.377 96.3483 435.525 96.6106 435.525 96.873Z" fill="#06BF97"/>
<path opacity="0.3" d="M446.789 145.374C446.789 145.538 446.756 145.702 446.658 145.849C446.281 146.456 445.887 147.046 445.477 147.62C445.215 147.997 444.69 148.079 444.313 147.817C443.936 147.555 443.854 147.03 444.116 146.653C444.51 146.112 444.887 145.538 445.248 144.964C445.494 144.57 446.002 144.456 446.396 144.702C446.642 144.849 446.789 145.112 446.789 145.374Z" fill="#06BF97"/>
</g>
<path d="M436.033 145.045C436.164 144.931 436.213 144.734 436.148 144.57L434.229 139.815C435.623 137.88 436.722 135.699 437.443 133.338L442.378 132.01C442.559 131.961 442.674 131.813 442.69 131.633L443.1 125.501C443.116 125.32 443.002 125.156 442.838 125.091L438.115 123.091C437.722 120.664 436.935 118.352 435.804 116.237L438.361 111.793C438.443 111.646 438.427 111.449 438.312 111.301L434.279 106.678C434.164 106.547 433.967 106.497 433.803 106.563L429.048 108.481C427.113 107.088 424.933 105.989 422.572 105.268L421.243 100.332C421.194 100.152 421.047 100.037 420.866 100.021L414.734 99.6108C414.554 99.5944 414.39 99.7092 414.324 99.8731L412.324 104.595C409.897 104.989 407.585 105.776 405.47 106.907L401.027 104.349C400.879 104.267 400.682 104.284 400.535 104.399L395.911 108.432C395.78 108.547 395.731 108.744 395.796 108.908L397.715 113.663C396.321 115.597 395.222 117.778 394.501 120.139L389.566 121.467C389.385 121.516 389.27 121.664 389.254 121.844L388.844 127.977C388.828 128.157 388.942 128.321 389.106 128.387L393.829 130.387C394.222 132.814 395.009 135.126 396.14 137.241L393.583 141.684C393.501 141.832 393.517 142.028 393.632 142.176L397.665 146.8C397.78 146.931 397.977 146.98 398.141 146.915L402.896 144.996C404.831 146.39 407.011 147.488 409.372 148.21L410.701 153.145C410.75 153.326 410.897 153.44 411.078 153.457L417.21 153.867C417.39 153.883 417.554 153.768 417.62 153.604L419.62 148.882C422.047 148.489 424.359 147.702 426.474 146.57L430.917 149.128C431.065 149.21 431.262 149.194 431.409 149.079L436.033 145.045Z" fill="#06BF97"/>
<path d="M422.276 126.534C422.326 127.879 421.932 129.19 421.161 130.305C420.21 131.683 418.768 132.617 417.112 132.912C413.701 133.535 410.422 131.256 409.799 127.846C409.192 124.435 411.455 121.156 414.865 120.533C416.521 120.238 418.194 120.599 419.571 121.55C420.948 122.501 421.883 123.943 422.178 125.599C422.227 125.911 422.26 126.223 422.276 126.534ZM411.356 126.878C411.356 127.108 411.389 127.321 411.422 127.551C411.881 130.059 414.291 131.732 416.8 131.273C418.013 131.06 419.079 130.371 419.784 129.354C420.489 128.338 420.752 127.108 420.538 125.895C420.325 124.681 419.637 123.616 418.62 122.91C417.603 122.205 416.374 121.943 415.16 122.156C412.881 122.599 411.291 124.632 411.356 126.878Z" fill="#BDD0FB"/>
<path d="M431.54 126.107C431.557 126.632 431.54 127.157 431.508 127.698C431.442 128.763 431.262 129.813 430.967 130.846C430.95 130.895 430.934 130.944 430.934 130.977C430.835 131.338 430.507 131.567 430.163 131.584C430.081 131.584 429.983 131.584 429.901 131.551C429.458 131.42 429.212 130.96 429.327 130.518C429.606 129.567 429.77 128.583 429.835 127.583C429.835 127.534 429.835 127.468 429.852 127.419C429.983 125.058 429.54 122.762 428.556 120.68C428.032 119.549 427.343 118.483 426.507 117.515L426.49 117.499C426.474 117.483 426.441 117.45 426.425 117.433C423.965 114.613 420.555 112.924 416.833 112.678C416.357 112.646 415.865 112.629 415.39 112.646C412.176 112.744 409.127 113.941 406.683 116.089C403.863 118.548 402.174 121.959 401.928 125.681C401.683 129.403 402.896 133.01 405.339 135.83C407.798 138.65 411.209 140.339 414.931 140.585C415.406 140.618 415.882 140.618 416.357 140.618C418.407 140.552 420.407 140.028 422.244 139.11C422.358 139.06 422.473 139.028 422.588 139.011C422.9 138.995 423.211 139.175 423.359 139.47C423.572 139.88 423.408 140.372 422.998 140.585C420.948 141.635 418.702 142.208 416.423 142.274C415.898 142.29 415.357 142.29 414.832 142.241C410.651 141.963 406.847 140.061 404.093 136.912C401.338 133.764 399.977 129.731 400.272 125.55C400.551 121.369 402.453 117.565 405.601 114.81C408.34 112.416 411.75 111.072 415.341 110.957C415.882 110.94 416.407 110.94 416.948 110.99C425.031 111.564 431.278 118.188 431.54 126.107Z" fill="#BDD0FB"/>
<path d="M406.569 372.514H399.731V446.528H406.569V372.514Z" fill="#91B3FA"/>
<path d="M433.131 447.955H373.185V441.199C373.185 440.986 373.366 440.806 373.579 440.806H432.721C432.934 440.806 433.114 440.986 433.114 441.199V447.955H433.131Z" fill="#91B3FA"/>
<path d="M442.018 367.234C442.018 371.284 438.706 374.596 434.656 374.596H374.005C369.955 374.596 366.643 371.284 366.643 367.234V360.577C366.643 356.527 369.955 353.215 374.005 353.215H434.656C438.706 353.215 442.018 356.527 442.018 360.577V367.234Z" fill="#91B3FA"/>
<path d="M40.1244 370.152H33.2871V444.165H40.1244V370.152Z" fill="#91B3FA"/>
<path d="M66.6867 445.592H6.74127V438.837C6.74127 438.623 6.92164 438.443 7.13479 438.443H66.2768C66.4899 438.443 66.6703 438.623 66.6703 438.837V445.592H66.6867Z" fill="#91B3FA"/>
<path d="M75.5736 364.889C75.5736 368.939 72.2616 372.251 68.2116 372.251H7.57757C3.52765 372.251 0.215576 368.939 0.215576 364.889V358.232C0.215576 354.182 3.52765 350.87 7.57757 350.87H68.228C72.278 350.87 75.59 354.182 75.59 358.232V364.889H75.5736Z" fill="#91B3FA"/>
<path d="M370.857 181.561C370.857 181.561 375.924 171.542 380.334 176.363C384.745 181.184 375.071 185.545 371.316 186.873L370.857 181.561Z" fill="url(#paint39_linear_2_521)"/>
<path d="M352.624 320.455C352.624 320.455 342.458 322.029 331.014 329.67C329.21 330.867 328.226 332.966 328.505 335.114C329.866 345.952 335.506 381.056 354.067 415.341C355.051 417.145 355.33 419.26 354.903 421.26L351.673 436.263L345.689 441.871H361.085L371.349 414.112L366.971 412.718C363.577 411.636 361.232 408.52 361.183 404.946L360.675 375.17C361.118 361.905 352.542 352.756 352.542 352.756L377.137 351.559L352.624 320.455Z" fill="url(#paint40_linear_2_521)"/>
<path d="M339.687 444.592C338.277 446.429 354.789 448.855 363.118 444.838C363.118 444.838 374.677 424.736 374.677 414.374C374.677 414.374 373.759 412.258 366.971 412.734C366.971 412.734 363.085 436.542 358.986 439.214C354.887 441.887 347.525 439.477 347.525 439.477C347.525 439.477 341.753 441.887 339.687 444.592Z" fill="url(#paint41_linear_2_521)"/>
<path d="M374.022 353.231C373.89 353.002 347.541 350.067 347.541 350.067C347.541 350.067 348.41 358.085 345.705 369.119C343.016 380.154 304.32 427.95 304.32 427.95L308.37 440.805C295.827 445.182 283.481 445.871 271.347 443.035L296.499 427.95C296.499 427.95 320.028 347.755 334.441 333.441L360.855 324.308L374.022 353.231Z" fill="url(#paint42_linear_2_521)"/>
<path d="M433.131 306.567C433.131 306.567 448.314 329.145 449.56 339.459C450.806 349.756 445.395 353.953 429.474 354.642C413.537 355.33 371.005 355.314 371.005 355.314L338.294 327.358C336.687 325.981 337.162 323.39 339.146 322.685C346.984 319.881 362.905 314.159 368.021 312.175C374.907 309.502 433.131 306.567 433.131 306.567Z" fill="url(#paint43_linear_2_521)"/>
<path d="M306.829 436.459C306.829 436.459 311.19 440.69 308.239 445.396C308.239 445.396 273.643 451.528 264.247 448.74C264.247 448.74 266.199 444.281 276.774 439.214L275.987 439.821C275.004 440.575 275.577 442.165 276.824 442.083C283.808 441.69 298.221 440.411 306.829 436.459Z" fill="url(#paint44_linear_2_521)"/>
<path d="M412.357 261.346C422.08 271.84 431.918 288.351 431.918 288.351L448.544 283.17C433.738 241.752 396.059 217.289 396.059 217.289C396.059 217.289 376.907 217.158 375.956 220.355C375.333 222.437 368.512 235.833 364.676 248.753C362.577 255.837 364.003 263.494 368.545 269.315C375.793 278.595 389.467 291.942 393.107 295.467L396.419 305.124C398.83 312.142 405.864 316.487 413.226 315.503L436.804 312.323C434.279 305.403 431.655 298.894 428.933 292.729L412.357 261.346Z" fill="#06BF97"/>
<path d="M371.087 201.27C371.284 201.942 378.842 219.732 379.236 220.077C379.629 220.421 390.189 220.995 395.173 217.584L384.515 188.759L371.087 201.27Z" fill="url(#paint45_linear_2_521)"/>
<path d="M370.808 168.133C370.808 168.133 360.987 170.937 352.887 183.808C344.787 196.679 348.706 203.615 354.543 205.238C360.38 206.878 369.267 207.878 379.81 200.253C390.336 192.613 383.532 164.936 370.808 168.133Z" fill="url(#paint46_linear_2_521)"/>
<path d="M373.595 191.514C373.595 191.514 382.122 173.15 365.315 171.363L361.167 173.904C361.167 173.904 359.134 162.049 369.742 157.967C380.351 153.868 398.043 165.329 401.092 179.397C404.142 193.465 388.434 204.533 385.647 202.614C384.565 201.86 380.777 194.236 380.777 194.236C380.777 194.236 381.22 195.383 379.924 191.973C378.629 188.562 374.596 192.17 374.596 192.17L373.595 191.514Z" fill="url(#paint47_linear_2_521)"/>
<path d="M400.207 193.53C398.026 191.317 399.436 187.562 402.502 187.07C412.406 185.512 427.523 187.07 433.918 208.271C441.1 232.16 445.773 244.113 450.56 246.196C453.692 247.573 453.905 251.918 450.79 253.328C448.478 254.378 445.166 254.738 440.427 253.705C403.88 245.753 412.98 206.549 400.207 193.53Z" fill="url(#paint48_linear_2_521)"/>
<path d="M362.593 294.286L374.546 282.776L391.074 289.76C391.074 289.76 407.52 292.302 416.931 289.76C426.343 287.219 426.343 287.219 426.343 287.219L447.625 280.595L450.97 290.039C451.823 292.433 450.97 295.106 448.888 296.565C447.051 297.877 444.887 299.303 443.51 299.91C440.706 301.14 374.448 299.057 374.448 299.057L362.593 294.286Z" fill="url(#paint49_linear_2_521)"/>
<path d="M407.093 304.829C407.044 304.829 406.995 304.829 406.946 304.829L342.754 304.763C341.163 304.763 339.884 303.468 339.884 301.894C339.884 300.303 341.18 298.992 342.754 299.024L406.946 299.09C408.536 299.09 409.815 300.385 409.815 301.959C409.815 303.501 408.602 304.747 407.093 304.829Z" fill="url(#paint50_linear_2_521)"/>
<path d="M285.038 246.539H338.507C342.458 246.539 346.033 248.818 347.722 252.376L372.431 304.779H305.993C303.451 304.779 301.172 303.222 300.238 300.861L281.07 252.36C279.955 249.573 282.021 246.539 285.038 246.539Z" fill="url(#paint51_linear_2_521)"/>
<path d="M322.701 273.412C323.865 277.02 322.996 280.512 320.782 281.217C318.569 281.922 315.831 279.594 314.683 275.987C313.519 272.379 314.388 268.887 316.601 268.182C318.815 267.477 321.537 269.805 322.701 273.412Z" fill="url(#paint52_linear_2_521)"/>
<path d="M415.767 306.911C415.98 305.96 415.685 304.976 414.98 304.239C414.275 303.484 413.209 303.058 412.094 303.058H32.8609C31.3852 303.058 30.0243 303.714 29.2209 304.78C28.4339 305.846 28.3191 307.206 28.9422 308.354L33.0577 316.044C33.9923 317.799 36.0418 318.93 38.2881 318.93H409.487C411.57 318.93 413.373 317.651 413.767 315.88L415.767 306.911Z" fill="#7D97F4"/>
<path d="M50.1427 452.004C49.6016 452.004 49.0605 451.923 48.5358 451.775C46.4863 451.168 45.5353 449.512 46.4207 448.086L131.403 311.274C132.289 309.847 134.666 309.191 136.732 309.798C138.782 310.405 139.733 312.061 138.847 313.487L53.8647 450.299C53.2088 451.365 51.7167 452.004 50.1427 452.004Z" fill="#7D97F4"/>
<path d="M145.882 452.003C144.307 452.003 142.815 451.363 142.16 450.298L57.1768 313.486C56.2914 312.059 57.2424 310.42 59.2919 309.797C61.3415 309.19 63.7353 309.846 64.6208 311.272L149.604 448.084C150.489 449.511 149.538 451.15 147.488 451.773C146.947 451.921 146.406 452.003 145.882 452.003Z" fill="#7D97F4"/>
<path d="M292.892 453.544C292.335 453.544 291.744 453.462 291.203 453.315C289.022 452.708 288.022 451.052 288.957 449.625L378.875 312.813C379.81 311.387 382.335 310.731 384.515 311.338C386.696 311.944 387.696 313.601 386.762 315.027L296.844 451.839C296.139 452.905 294.548 453.544 292.892 453.544Z" fill="#7D97F4"/>
<path d="M394.189 453.544C392.533 453.544 390.943 452.905 390.254 451.839L300.336 315.027C299.401 313.601 300.402 311.961 302.582 311.338C304.763 310.731 307.272 311.387 308.223 312.813L398.141 449.625C399.075 451.052 398.075 452.692 395.894 453.315C395.337 453.462 394.763 453.544 394.189 453.544Z" fill="#7D97F4"/>
<path d="M82.5259 304.043C82.5751 304.043 82.6242 304.043 82.6734 304.043L146.866 303.977C148.456 303.977 149.735 302.682 149.735 301.108C149.735 299.517 148.44 298.206 146.866 298.238L82.6734 298.304C81.083 298.304 79.804 299.599 79.804 301.173C79.804 302.715 81.0174 303.977 82.5259 304.043Z" fill="url(#paint53_linear_2_521)"/>
<path d="M204.581 245.753H151.112C147.161 245.753 143.586 248.032 141.897 251.59L117.188 303.993H183.626C186.168 303.993 188.447 302.436 189.382 300.075L208.549 251.574C209.664 248.787 207.598 245.753 204.581 245.753Z" fill="url(#paint54_linear_2_521)"/>
<path d="M166.918 272.627C165.754 276.234 166.623 279.727 168.837 280.432C171.05 281.137 173.788 278.809 174.936 275.201C176.1 271.594 175.231 268.102 173.018 267.397C170.804 266.692 168.083 269.036 166.918 272.627Z" fill="url(#paint55_linear_2_521)"/>
<defs>
<linearGradient id="paint0_linear_2_521" x1="189.451" y1="67.0504" x2="0.162886" y2="67.0504" gradientUnits="userSpaceOnUse">
<stop stop-color="#4F52FF"/>
<stop offset="1" stop-color="#4042E2"/>
</linearGradient>
<linearGradient id="paint1_linear_2_521" x1="8.59998" y1="69.5356" x2="179.504" y2="69.5356" gradientUnits="userSpaceOnUse">
<stop stop-color="#DAE3FE"/>
<stop offset="1" stop-color="#E9EFFD"/>
</linearGradient>
<linearGradient id="paint2_linear_2_521" x1="156.799" y1="65.7076" x2="21.8846" y2="65.7076" gradientUnits="userSpaceOnUse">
<stop stop-color="#4F52FF"/>
<stop offset="1" stop-color="#4042E2"/>
</linearGradient>
<linearGradient id="paint3_linear_2_521" x1="122.676" y1="80.9366" x2="121.424" y2="80.9366" gradientUnits="userSpaceOnUse">
<stop stop-color="#4F52FF"/>
<stop offset="1" stop-color="#4042E2"/>
</linearGradient>
<linearGradient id="paint4_linear_2_521" x1="88.2004" y1="98.1745" x2="86.9486" y2="98.1745" gradientUnits="userSpaceOnUse">
<stop stop-color="#4F52FF"/>
<stop offset="1" stop-color="#4042E2"/>
</linearGradient>
<linearGradient id="paint5_linear_2_521" x1="63.2716" y1="90.8151" x2="60.7968" y2="90.8151" gradientUnits="userSpaceOnUse">
<stop stop-color="#4F52FF"/>
<stop offset="1" stop-color="#4042E2"/>
</linearGradient>
<linearGradient id="paint6_linear_2_521" x1="37.0157" y1="99.8074" x2="35.7639" y2="99.8074" gradientUnits="userSpaceOnUse">
<stop stop-color="#4F52FF"/>
<stop offset="1" stop-color="#4042E2"/>
</linearGradient>
<linearGradient id="paint7_linear_2_521" x1="166.967" y1="75.7592" x2="157.869" y2="75.7592" gradientUnits="userSpaceOnUse">
<stop stop-color="#4F52FF"/>
<stop offset="1" stop-color="#4042E2"/>
</linearGradient>
<linearGradient id="paint8_linear_2_521" x1="165.076" y1="113.417" x2="16.3486" y2="113.417" gradientUnits="userSpaceOnUse">
<stop stop-color="#4F52FF"/>
<stop offset="1" stop-color="#4042E2"/>
</linearGradient>
<linearGradient id="paint9_linear_2_521" x1="184.868" y1="410.951" x2="312.345" y2="549.609" gradientUnits="userSpaceOnUse">
<stop stop-color="#09005D"/>
<stop offset="1" stop-color="#1A0F91"/>
</linearGradient>
<linearGradient id="paint10_linear_2_521" x1="226.245" y1="421.25" x2="214.922" y2="421.25" gradientUnits="userSpaceOnUse">
<stop stop-color="#FEBBBA"/>
<stop offset="1" stop-color="#FF928E"/>
</linearGradient>
<linearGradient id="paint11_linear_2_521" x1="174.831" y1="254.143" x2="283.301" y2="401.16" gradientUnits="userSpaceOnUse">
<stop stop-color="#09005D"/>
<stop offset="1" stop-color="#1A0F91"/>
</linearGradient>
<linearGradient id="paint12_linear_2_521" x1="213.466" y1="384.661" x2="340.942" y2="523.319" gradientUnits="userSpaceOnUse">
<stop stop-color="#09005D"/>
<stop offset="1" stop-color="#1A0F91"/>
</linearGradient>
<linearGradient id="paint13_linear_2_521" x1="267.054" y1="420.67" x2="257.277" y2="420.67" gradientUnits="userSpaceOnUse">
<stop stop-color="#FEBBBA"/>
<stop offset="1" stop-color="#FF928E"/>
</linearGradient>
<linearGradient id="paint14_linear_2_521" x1="194.163" y1="239.88" x2="302.633" y2="386.897" gradientUnits="userSpaceOnUse">
<stop stop-color="#09005D"/>
<stop offset="1" stop-color="#1A0F91"/>
</linearGradient>
<linearGradient id="paint15_linear_2_521" x1="130.724" y1="58.4464" x2="150.702" y2="115.527" gradientUnits="userSpaceOnUse">
<stop stop-color="#FEBBBA"/>
<stop offset="1" stop-color="#FF928E"/>
</linearGradient>
<linearGradient id="paint16_linear_2_521" x1="113.648" y1="64.423" x2="133.626" y2="121.503" gradientUnits="userSpaceOnUse">
<stop stop-color="#FEBBBA"/>
<stop offset="1" stop-color="#FF928E"/>
</linearGradient>
<linearGradient id="paint17_linear_2_521" x1="128.996" y1="100.891" x2="113.947" y2="70.5349" gradientUnits="userSpaceOnUse">
<stop stop-color="#FEBBBA"/>
<stop offset="1" stop-color="#FF928E"/>
</linearGradient>
<linearGradient id="paint18_linear_2_521" x1="306.233" y1="207.784" x2="233.027" y2="207.784" gradientUnits="userSpaceOnUse">
<stop stop-color="#FEBBBA"/>
<stop offset="1" stop-color="#FF928E"/>
</linearGradient>
<linearGradient id="paint19_linear_2_521" x1="356.144" y1="36.8811" x2="302.099" y2="91.7451" gradientUnits="userSpaceOnUse">
<stop stop-color="#4F52FF"/>
<stop offset="1" stop-color="#4042E2"/>
</linearGradient>
<linearGradient id="paint20_linear_2_521" x1="238.462" y1="200.109" x2="215.655" y2="200.109" gradientUnits="userSpaceOnUse">
<stop stop-color="#FEBBBA"/>
<stop offset="1" stop-color="#FF928E"/>
</linearGradient>
<linearGradient id="paint21_linear_2_521" x1="250.021" y1="129.522" x2="221.077" y2="129.522" gradientUnits="userSpaceOnUse">
<stop stop-color="#FEBBBA"/>
<stop offset="1" stop-color="#FF928E"/>
</linearGradient>
<linearGradient id="paint22_linear_2_521" x1="214.194" y1="111.109" x2="246.017" y2="91.6995" gradientUnits="userSpaceOnUse">
<stop stop-color="#FEBBBA"/>
<stop offset="1" stop-color="#FF928E"/>
</linearGradient>
<linearGradient id="paint23_linear_2_521" x1="262.862" y1="71.2393" x2="221.75" y2="103.711" gradientUnits="userSpaceOnUse">
<stop stop-color="#09005D"/>
<stop offset="1" stop-color="#1A0F91"/>
</linearGradient>
<linearGradient id="paint24_linear_2_521" x1="222.552" y1="118.348" x2="251.184" y2="100.884" gradientUnits="userSpaceOnUse">
<stop stop-color="#FEBBBA"/>
<stop offset="1" stop-color="#FF928E"/>
</linearGradient>
<linearGradient id="paint25_linear_2_521" x1="84.1312" y1="282.453" x2="122.195" y2="282.453" gradientUnits="userSpaceOnUse">
<stop stop-color="#FEBBBA"/>
<stop offset="1" stop-color="#FF928E"/>
</linearGradient>
<linearGradient id="paint26_linear_2_521" x1="93.3049" y1="295.102" x2="125.691" y2="299.222" gradientUnits="userSpaceOnUse">
<stop stop-color="#FEBBBA"/>
<stop offset="1" stop-color="#FF928E"/>
</linearGradient>
<linearGradient id="paint27_linear_2_521" x1="91.9867" y1="442.6" x2="135.741" y2="442.6" gradientUnits="userSpaceOnUse">
<stop stop-color="#09005D"/>
<stop offset="1" stop-color="#1A0F91"/>
</linearGradient>
<linearGradient id="paint28_linear_2_521" x1="125.698" y1="358.466" x2="113.743" y2="441.064" gradientUnits="userSpaceOnUse">
<stop stop-color="#09005D"/>
<stop offset="1" stop-color="#1A0F91"/>
</linearGradient>
<linearGradient id="paint29_linear_2_521" x1="94.1724" y1="429.415" x2="106.011" y2="429.415" gradientUnits="userSpaceOnUse">
<stop stop-color="#FEBBBA"/>
<stop offset="1" stop-color="#FF928E"/>
</linearGradient>
<linearGradient id="paint30_linear_2_521" x1="160.613" y1="433.93" x2="195.94" y2="433.93" gradientUnits="userSpaceOnUse">
<stop stop-color="#09005D"/>
<stop offset="1" stop-color="#1A0F91"/>
</linearGradient>
<linearGradient id="paint31_linear_2_521" x1="184.913" y1="367.036" x2="172.958" y2="449.633" gradientUnits="userSpaceOnUse">
<stop stop-color="#09005D"/>
<stop offset="1" stop-color="#1A0F91"/>
</linearGradient>
<linearGradient id="paint32_linear_2_521" x1="28.7107" y1="375.995" x2="122.427" y2="375.995" gradientUnits="userSpaceOnUse">
<stop stop-color="#09005D"/>
<stop offset="1" stop-color="#1A0F91"/>
</linearGradient>
<linearGradient id="paint33_linear_2_521" x1="150.246" y1="430.411" x2="164.379" y2="430.411" gradientUnits="userSpaceOnUse">
<stop stop-color="#FEBBBA"/>
<stop offset="1" stop-color="#FF928E"/>
</linearGradient>
<linearGradient id="paint34_linear_2_521" x1="200.442" y1="262.645" x2="188.159" y2="274.109" gradientUnits="userSpaceOnUse">
<stop stop-color="#09005D"/>
<stop offset="1" stop-color="#1A0F91"/>
</linearGradient>
<linearGradient id="paint35_linear_2_521" x1="55.4891" y1="223.276" x2="59.3856" y2="204.778" gradientUnits="userSpaceOnUse">
<stop stop-color="#FEBBBA"/>
<stop offset="1" stop-color="#FF928E"/>
</linearGradient>
<linearGradient id="paint36_linear_2_521" x1="72.0176" y1="189.698" x2="37.7164" y2="217.336" gradientUnits="userSpaceOnUse">
<stop stop-color="#FEBBBA"/>
<stop offset="1" stop-color="#FF928E"/>
</linearGradient>
<linearGradient id="paint37_linear_2_521" x1="46.9164" y1="169.191" x2="79.6106" y2="209.172" gradientUnits="userSpaceOnUse">
<stop stop-color="#09005D"/>
<stop offset="1" stop-color="#1A0F91"/>
</linearGradient>
<linearGradient id="paint38_linear_2_521" x1="67.537" y1="184.139" x2="33.2361" y2="211.777" gradientUnits="userSpaceOnUse">
<stop stop-color="#FEBBBA"/>
<stop offset="1" stop-color="#FF928E"/>
</linearGradient>
<linearGradient id="paint39_linear_2_521" x1="350.001" y1="208.541" x2="378.352" y2="178.047" gradientUnits="userSpaceOnUse">
<stop stop-color="#FEBBBA"/>
<stop offset="1" stop-color="#FF928E"/>
</linearGradient>
<linearGradient id="paint40_linear_2_521" x1="427.733" y1="279.704" x2="335.47" y2="399.264" gradientUnits="userSpaceOnUse">
<stop stop-color="#FEBBBA"/>
<stop offset="1" stop-color="#FF928E"/>
</linearGradient>
<linearGradient id="paint41_linear_2_521" x1="358.241" y1="412.882" x2="351.083" y2="522.626" gradientUnits="userSpaceOnUse">
<stop stop-color="#09005D"/>
<stop offset="1" stop-color="#1A0F91"/>
</linearGradient>
<linearGradient id="paint42_linear_2_521" x1="328.784" y1="404.433" x2="396.48" y2="515.258" gradientUnits="userSpaceOnUse">
<stop stop-color="#FEBBBA"/>
<stop offset="1" stop-color="#FF928E"/>
</linearGradient>
<linearGradient id="paint43_linear_2_521" x1="371.755" y1="414.785" x2="390.203" y2="346.761" gradientUnits="userSpaceOnUse">
<stop stop-color="#09005D"/>
<stop offset="1" stop-color="#1A0F91"/>
</linearGradient>
<linearGradient id="paint44_linear_2_521" x1="289.175" y1="408.378" x2="282.017" y2="518.122" gradientUnits="userSpaceOnUse">
<stop stop-color="#09005D"/>
<stop offset="1" stop-color="#1A0F91"/>
</linearGradient>
<linearGradient id="paint45_linear_2_521" x1="389.283" y1="248.897" x2="381.503" y2="198.98" gradientUnits="userSpaceOnUse">
<stop stop-color="#FEBBBA"/>
<stop offset="1" stop-color="#FF928E"/>
</linearGradient>
<linearGradient id="paint46_linear_2_521" x1="353.026" y1="208.682" x2="372.482" y2="184.386" gradientUnits="userSpaceOnUse">
<stop stop-color="#FEBBBA"/>
<stop offset="1" stop-color="#FF928E"/>
</linearGradient>
<linearGradient id="paint47_linear_2_521" x1="433.981" y1="132.634" x2="360.16" y2="196.493" gradientUnits="userSpaceOnUse">
<stop stop-color="#09005D"/>
<stop offset="1" stop-color="#1A0F91"/>
</linearGradient>
<linearGradient id="paint48_linear_2_521" x1="470.167" y1="174.424" x2="396.8" y2="250.984" gradientUnits="userSpaceOnUse">
<stop stop-color="#09005D"/>
<stop offset="1" stop-color="#1A0F91"/>
</linearGradient>
<linearGradient id="paint49_linear_2_521" x1="417.865" y1="290.431" x2="506.556" y2="290.431" gradientUnits="userSpaceOnUse">
<stop stop-color="#FEBBBA"/>
<stop offset="1" stop-color="#FF928E"/>
</linearGradient>
<linearGradient id="paint50_linear_2_521" x1="417.983" y1="287.77" x2="367.02" y2="304.484" gradientUnits="userSpaceOnUse">
<stop stop-color="#09005D"/>
<stop offset="1" stop-color="#1A0F91"/>
</linearGradient>
<linearGradient id="paint51_linear_2_521" x1="347.976" y1="254.355" x2="311.274" y2="293.146" gradientUnits="userSpaceOnUse">
<stop stop-color="#09005D"/>
<stop offset="1" stop-color="#1A0F91"/>
</linearGradient>
<linearGradient id="paint52_linear_2_521" x1="325.788" y1="264.013" x2="309.135" y2="289.09" gradientUnits="userSpaceOnUse">
<stop stop-color="#4F52FF"/>
<stop offset="1" stop-color="#4042E2"/>
</linearGradient>
<linearGradient id="paint53_linear_2_521" x1="71.6364" y1="286.987" x2="122.599" y2="303.701" gradientUnits="userSpaceOnUse">
<stop stop-color="#09005D"/>
<stop offset="1" stop-color="#1A0F91"/>
</linearGradient>
<linearGradient id="paint54_linear_2_521" x1="141.644" y1="253.572" x2="178.345" y2="292.363" gradientUnits="userSpaceOnUse">
<stop stop-color="#09005D"/>
<stop offset="1" stop-color="#1A0F91"/>
</linearGradient>
<linearGradient id="paint55_linear_2_521" x1="163.831" y1="263.231" x2="180.484" y2="288.308" gradientUnits="userSpaceOnUse">
<stop stop-color="#4F52FF"/>
<stop offset="1" stop-color="#4042E2"/>
</linearGradient>
</defs>
</svg>
